<svg xmlns="http://www.w3.org/2000/svg" xmlns:xlink="http://www.w3.org/1999/xlink" width="500" zoomAndPan="magnify" viewBox="0 0 375 374.999991" height="500" preserveAspectRatio="xMidYMid meet" version="1.0"><defs><clipPath id="7f2e51ace8"><path d="M 54.546875 54.546875 L 320.453125 54.546875 L 320.453125 320.453125 L 54.546875 320.453125 Z M 54.546875 54.546875 " clip-rule="nonzero"/></clipPath><clipPath id="e5b1e671fc"><path d="M 187.5 54.546875 C 114.070312 54.546875 54.546875 114.070312 54.546875 187.5 C 54.546875 260.929688 114.070312 320.453125 187.5 320.453125 C 260.929688 320.453125 320.453125 260.929688 320.453125 187.5 C 320.453125 114.070312 260.929688 54.546875 187.5 54.546875 Z M 187.5 54.546875 " clip-rule="nonzero"/></clipPath><clipPath id="2b30589884"><path d="M 64.359375 64.359375 L 310.640625 64.359375 L 310.640625 310.640625 L 64.359375 310.640625 Z M 64.359375 64.359375 " clip-rule="nonzero"/></clipPath><clipPath id="e1acb62067"><path d="M 187.5 64.359375 C 119.492188 64.359375 64.359375 119.492188 64.359375 187.5 C 64.359375 255.507812 119.492188 310.640625 187.5 310.640625 C 255.507812 310.640625 310.640625 255.507812 310.640625 187.5 C 310.640625 119.492188 255.507812 64.359375 187.5 64.359375 Z M 187.5 64.359375 " clip-rule="nonzero"/></clipPath><clipPath id="dcf45c8e04"><path d="M 125 102.378906 L 250 102.378906 L 250 272.617188 L 125 272.617188 Z M 125 102.378906 " clip-rule="nonzero"/></clipPath></defs><g clip-path="url(#7f2e51ace8)"><g clip-path="url(#e5b1e671fc)"><path fill="#237d18" d="M 54.546875 54.546875 L 320.453125 54.546875 L 320.453125 320.453125 L 54.546875 320.453125 Z M 54.546875 54.546875 " fill-opacity="1" fill-rule="nonzero"/></g></g><g clip-path="url(#2b30589884)"><g clip-path="url(#e1acb62067)"><path fill="#ffffff" d="M 64.359375 64.359375 L 310.640625 64.359375 L 310.640625 310.640625 L 64.359375 310.640625 Z M 64.359375 64.359375 " fill-opacity="1" fill-rule="nonzero"/></g></g><g clip-path="url(#dcf45c8e04)"><path fill="#237d18" d="M 247.726562 149.019531 L 191.042969 103.667969 C 190.90625 103.554688 190.730469 103.527344 190.582031 103.433594 C 190.269531 103.21875 189.9375 103.066406 189.59375 102.917969 C 189.257812 102.78125 188.929688 102.671875 188.578125 102.597656 C 188.203125 102.523438 187.851562 102.507812 187.46875 102.507812 C 187.132812 102.507812 186.8125 102.523438 186.472656 102.589844 C 186.09375 102.664062 185.734375 102.789062 185.367188 102.933594 C 185.039062 103.066406 184.738281 103.21875 184.4375 103.417969 C 184.285156 103.519531 184.101562 103.550781 183.953125 103.667969 L 127.273438 149.019531 C 124.832031 150.980469 124.429688 154.539062 126.386719 156.988281 C 127.507812 158.378906 129.15625 159.109375 130.816406 159.109375 C 132.054688 159.109375 133.308594 158.707031 134.355469 157.871094 L 181.832031 119.890625 L 181.867188 266.8125 C 181.867188 269.949219 184.410156 272.480469 187.535156 272.480469 C 190.671875 272.480469 193.207031 269.941406 193.207031 266.8125 L 193.167969 119.890625 L 240.644531 157.867188 C 241.699219 158.699219 242.9375 159.101562 244.1875 159.101562 C 245.851562 159.101562 247.5 158.371094 248.621094 156.980469 C 250.5625 154.539062 250.171875 150.972656 247.726562 149.019531 Z M 247.726562 149.019531 " fill-opacity="1" fill-rule="nonzero"/></g></svg>