<svg xmlns="http://www.w3.org/2000/svg" xmlns:xlink="http://www.w3.org/1999/xlink" width="500" zoomAndPan="magnify" viewBox="0 0 375 374.999991" height="500" preserveAspectRatio="xMidYMid meet" version="1.0"><defs><clipPath id="b2909bfc20"><path d="M 54.546875 54.546875 L 320.453125 54.546875 L 320.453125 320.453125 L 54.546875 320.453125 Z M 54.546875 54.546875 " clip-rule="nonzero"/></clipPath><clipPath id="9ada935c77"><path d="M 187.5 54.546875 C 114.070312 54.546875 54.546875 114.070312 54.546875 187.5 C 54.546875 260.929688 114.070312 320.453125 187.5 320.453125 C 260.929688 320.453125 320.453125 260.929688 320.453125 187.5 C 320.453125 114.070312 260.929688 54.546875 187.5 54.546875 Z M 187.5 54.546875 " clip-rule="nonzero"/></clipPath><clipPath id="edd36644e3"><path d="M 64.359375 64.359375 L 310.640625 64.359375 L 310.640625 310.640625 L 64.359375 310.640625 Z M 64.359375 64.359375 " clip-rule="nonzero"/></clipPath><clipPath id="b97bcb950e"><path d="M 187.5 64.359375 C 119.492188 64.359375 64.359375 119.492188 64.359375 187.5 C 64.359375 255.507812 119.492188 310.640625 187.5 310.640625 C 255.507812 310.640625 310.640625 255.507812 310.640625 187.5 C 310.640625 119.492188 255.507812 64.359375 187.5 64.359375 Z M 187.5 64.359375 " clip-rule="nonzero"/></clipPath><clipPath id="dbd7511cdf"><path d="M 125 102.378906 L 250 102.378906 L 250 272.628906 L 125 272.628906 Z M 125 102.378906 " clip-rule="nonzero"/></clipPath></defs><g clip-path="url(#b2909bfc20)"><g clip-path="url(#9ada935c77)"><path fill="#ff0000" d="M 54.546875 54.546875 L 320.453125 54.546875 L 320.453125 320.453125 L 54.546875 320.453125 Z M 54.546875 54.546875 " fill-opacity="1" fill-rule="nonzero"/></g></g><g clip-path="url(#edd36644e3)"><g clip-path="url(#b97bcb950e)"><path fill="#ffffff" d="M 64.359375 64.359375 L 310.640625 64.359375 L 310.640625 310.640625 L 64.359375 310.640625 Z M 64.359375 64.359375 " fill-opacity="1" fill-rule="nonzero"/></g></g><g clip-path="url(#dbd7511cdf)"><path fill="#ff0000" d="M 247.726562 225.980469 L 191.042969 271.332031 C 190.90625 271.441406 190.730469 271.472656 190.582031 271.566406 C 190.269531 271.777344 189.9375 271.933594 189.59375 272.078125 C 189.257812 272.21875 188.929688 272.328125 188.578125 272.402344 C 188.203125 272.476562 187.851562 272.488281 187.46875 272.488281 C 187.132812 272.488281 186.8125 272.476562 186.472656 272.410156 C 186.09375 272.335938 185.734375 272.210938 185.367188 272.066406 C 185.039062 271.933594 184.738281 271.777344 184.4375 271.582031 C 184.285156 271.480469 184.101562 271.449219 183.953125 271.332031 L 127.273438 225.980469 C 124.832031 224.019531 124.429688 220.457031 126.386719 218.011719 C 127.507812 216.621094 129.15625 215.886719 130.816406 215.886719 C 132.054688 215.886719 133.308594 216.289062 134.355469 217.125 L 181.832031 255.109375 L 181.867188 108.183594 C 181.867188 105.050781 184.410156 102.515625 187.535156 102.515625 C 190.671875 102.515625 193.207031 105.058594 193.207031 108.183594 L 193.167969 255.109375 L 240.644531 217.132812 C 241.699219 216.296875 242.9375 215.894531 244.1875 215.894531 C 245.851562 215.894531 247.5 216.628906 248.621094 218.019531 C 250.5625 220.457031 250.171875 224.023438 247.726562 225.980469 Z M 247.726562 225.980469 " fill-opacity="1" fill-rule="nonzero"/></g></svg>