<svg xmlns="http://www.w3.org/2000/svg" xmlns:xlink="http://www.w3.org/1999/xlink" width="500" zoomAndPan="magnify" viewBox="0 0 375 374.999991" height="500" preserveAspectRatio="xMidYMid meet" version="1.0"><path fill="#e5e7eb" d="M 18.257812 309.890625 C 15.121094 309.890625 12.585938 307.351562 12.585938 304.222656 L 12.585938 75.355469 C 12.585938 58.136719 26.597656 44.132812 43.816406 44.132812 L 126.011719 44.132812 C 141.757812 44.132812 154.820312 55.851562 156.933594 71.023438 L 297.011719 71.023438 C 316.078125 71.023438 331.59375 86.542969 331.59375 105.621094 L 331.59375 145.054688 C 331.59375 148.183594 329.058594 150.722656 325.921875 150.722656 C 322.789062 150.722656 320.253906 148.183594 320.253906 145.054688 L 320.253906 105.621094 C 320.253906 92.796875 309.824219 82.363281 297.011719 82.363281 L 151.566406 82.363281 C 148.429688 82.363281 145.894531 79.824219 145.894531 76.695312 L 145.894531 75.355469 C 145.894531 64.390625 136.976562 55.472656 126.011719 55.472656 L 43.816406 55.472656 C 32.84375 55.472656 23.925781 64.390625 23.925781 75.355469 L 23.925781 304.222656 C 23.925781 307.359375 21.390625 309.890625 18.257812 309.890625 Z M 18.257812 309.890625 " fill-opacity="1" fill-rule="nonzero"/><path fill="#e5e7eb" d="M 304.410156 330.863281 L 35.792969 330.863281 C 28.46875 330.863281 22.042969 327.972656 17.699219 322.710938 C 13.378906 317.484375 11.695312 310.355469 13.082031 303.152344 L 39.773438 164.949219 C 42.511719 150.847656 56.335938 139.378906 70.582031 139.378906 L 339.195312 139.378906 C 346.53125 139.378906 352.96875 142.28125 357.3125 147.550781 C 361.632812 152.78125 363.308594 159.910156 361.914062 167.097656 L 335.222656 305.292969 C 332.484375 319.398438 318.664062 330.863281 304.410156 330.863281 Z M 70.578125 150.722656 C 61.640625 150.722656 52.628906 158.230469 50.898438 167.109375 L 24.210938 305.300781 C 23.460938 309.222656 24.25 312.847656 26.445312 315.492188 C 28.59375 318.097656 31.914062 319.523438 35.792969 319.523438 L 304.410156 319.523438 C 313.351562 319.523438 322.363281 312.023438 324.085938 303.144531 L 350.777344 164.949219 C 351.53125 161.039062 350.746094 157.421875 348.554688 154.773438 C 346.402344 152.160156 343.074219 150.722656 339.191406 150.722656 Z M 70.578125 150.722656 " fill-opacity="1" fill-rule="nonzero"/><path fill="#e5e7eb" d="M 45.515625 170.886719 C 42.382812 170.886719 39.847656 168.34375 39.847656 165.214844 L 39.847656 112.269531 C 39.847656 107.070312 44.070312 102.847656 49.265625 102.847656 L 288.96875 102.847656 C 294.148438 102.847656 298.367188 107.078125 298.367188 112.269531 L 298.367188 145.058594 C 298.367188 148.191406 295.832031 150.730469 292.699219 150.730469 C 289.5625 150.730469 287.027344 148.191406 287.027344 145.058594 L 287.027344 114.1875 L 51.1875 114.1875 L 51.1875 165.214844 C 51.1875 168.34375 48.652344 170.886719 45.515625 170.886719 Z M 45.515625 170.886719 " fill-opacity="1" fill-rule="nonzero"/></svg>