<svg xmlns="http://www.w3.org/2000/svg" xmlns:xlink="http://www.w3.org/1999/xlink" width="500" zoomAndPan="magnify" viewBox="0 0 375 374.999991" height="500" preserveAspectRatio="xMidYMid meet" version="1.0"><defs><clipPath id="60f6b35d84"><path d="M 18 8.4375 L 357 8.4375 L 357 363 L 18 363 Z M 18 8.4375 " clip-rule="nonzero"/></clipPath><clipPath id="ddfc1b8d06"><path d="M 59.730469 135.976562 L 315.3125 135.976562 L 315.3125 255.589844 L 59.730469 255.589844 Z M 59.730469 135.976562 " clip-rule="nonzero"/></clipPath><clipPath id="3db1a4eaf4"><path d="M 94.230469 135.976562 L 280.769531 135.976562 C 289.917969 135.976562 298.691406 139.613281 305.164062 146.082031 C 311.632812 152.550781 315.269531 161.328125 315.269531 170.476562 L 315.269531 221.089844 C 315.269531 230.238281 311.632812 239.015625 305.164062 245.484375 C 298.691406 251.957031 289.917969 255.589844 280.769531 255.589844 L 94.230469 255.589844 C 85.082031 255.589844 76.308594 251.957031 69.835938 245.484375 C 63.367188 239.015625 59.730469 230.238281 59.730469 221.089844 L 59.730469 170.476562 C 59.730469 161.328125 63.367188 152.550781 69.835938 146.082031 C 76.308594 139.613281 85.082031 135.976562 94.230469 135.976562 Z M 94.230469 135.976562 " clip-rule="nonzero"/></clipPath><clipPath id="97042e2093"><path d="M 112.386719 278.464844 L 262.730469 278.464844 L 262.730469 313.679688 L 112.386719 313.679688 Z M 112.386719 278.464844 " clip-rule="nonzero"/></clipPath><clipPath id="ddd6b9c5a6"><path d="M 129.992188 278.464844 L 245.007812 278.464844 C 254.730469 278.464844 262.613281 286.347656 262.613281 296.070312 C 262.613281 305.796875 254.730469 313.679688 245.007812 313.679688 L 129.992188 313.679688 C 120.269531 313.679688 112.386719 305.796875 112.386719 296.070312 C 112.386719 286.347656 120.269531 278.464844 129.992188 278.464844 Z M 129.992188 278.464844 " clip-rule="nonzero"/></clipPath><clipPath id="1dec8ddd8d"><path d="M 87.984375 92.691406 L 275.816406 92.691406 L 275.816406 212.304688 L 87.984375 212.304688 Z M 87.984375 92.691406 " clip-rule="nonzero"/></clipPath><clipPath id="561c5b2b63"><path d="M 122.484375 92.691406 L 241.167969 92.691406 C 250.316406 92.691406 259.09375 96.328125 265.5625 102.796875 C 272.035156 109.265625 275.667969 118.042969 275.667969 127.191406 L 275.667969 177.804688 C 275.667969 186.953125 272.035156 195.730469 265.5625 202.199219 C 259.09375 208.667969 250.316406 212.304688 241.167969 212.304688 L 122.484375 212.304688 C 113.335938 212.304688 104.5625 208.667969 98.089844 202.199219 C 91.621094 195.730469 87.984375 186.953125 87.984375 177.804688 L 87.984375 127.191406 C 87.984375 118.042969 91.621094 109.265625 98.089844 102.796875 C 104.5625 96.328125 113.335938 92.691406 122.484375 92.691406 Z M 122.484375 92.691406 " clip-rule="nonzero"/></clipPath></defs><rect x="-37.5" width="450" fill="#ffffff" y="-37.499999" height="449.999989" fill-opacity="1"/><rect x="-37.5" width="450" fill="#f3f4f6" y="-37.499999" height="449.999989" fill-opacity="1"/><g clip-path="url(#60f6b35d84)"><path fill="#075985" d="M 338.125 117.980469 C 339.132812 117.984375 340.027344 117.671875 340.808594 117.042969 L 350.769531 108.914062 C 350.992188 108.738281 351.191406 108.542969 351.375 108.332031 C 351.554688 108.117188 351.714844 107.886719 351.851562 107.640625 C 351.988281 107.394531 352.097656 107.140625 352.183594 106.871094 C 352.269531 106.605469 352.328125 106.332031 352.359375 106.050781 C 352.394531 105.773438 352.398438 105.496094 352.375 105.214844 C 352.351562 104.933594 352.300781 104.660156 352.222656 104.390625 C 352.144531 104.121094 352.039062 103.859375 351.910156 103.613281 C 351.78125 103.363281 351.628906 103.128906 351.453125 102.910156 L 308.878906 49.820312 C 308.144531 48.902344 307.195312 48.375 306.027344 48.246094 C 305.414062 48.171875 304.816406 48.226562 304.230469 48.410156 C 303.640625 48.597656 303.121094 48.894531 302.664062 49.308594 L 292.871094 57.269531 C 292.328125 57.714844 291.921875 58.261719 291.652344 58.910156 C 291.378906 59.558594 291.277344 60.230469 291.339844 60.929688 C 277.921875 50.4375 263.246094 42.179688 247.316406 36.152344 L 247.316406 29.9375 C 247.316406 29.65625 247.289062 29.382812 247.234375 29.105469 C 247.179688 28.832031 247.097656 28.566406 246.992188 28.308594 C 246.886719 28.050781 246.753906 27.804688 246.597656 27.570312 C 246.445312 27.339844 246.265625 27.125 246.070312 26.925781 C 245.871094 26.730469 245.65625 26.554688 245.425781 26.398438 C 245.191406 26.242188 244.945312 26.109375 244.6875 26.003906 C 244.429688 25.898438 244.164062 25.816406 243.890625 25.761719 C 243.617188 25.707031 243.339844 25.679688 243.058594 25.679688 L 226.03125 25.679688 L 226.03125 12.90625 C 226.03125 12.628906 226.003906 12.351562 225.949219 12.078125 C 225.894531 11.804688 225.8125 11.535156 225.707031 11.277344 C 225.597656 11.019531 225.46875 10.773438 225.3125 10.542969 C 225.15625 10.308594 224.980469 10.09375 224.78125 9.898438 C 224.585938 9.699219 224.371094 9.523438 224.136719 9.367188 C 223.90625 9.210938 223.660156 9.082031 223.402344 8.972656 C 223.144531 8.867188 222.875 8.785156 222.601562 8.730469 C 222.328125 8.675781 222.050781 8.648438 221.773438 8.648438 L 153.652344 8.648438 C 153.375 8.648438 153.097656 8.675781 152.824219 8.730469 C 152.550781 8.785156 152.28125 8.867188 152.023438 8.972656 C 151.765625 9.082031 151.519531 9.210938 151.289062 9.367188 C 151.054688 9.523438 150.839844 9.699219 150.644531 9.898438 C 150.445312 10.09375 150.269531 10.308594 150.113281 10.542969 C 149.957031 10.773438 149.828125 11.019531 149.71875 11.277344 C 149.613281 11.535156 149.53125 11.804688 149.476562 12.078125 C 149.421875 12.351562 149.394531 12.628906 149.394531 12.90625 L 149.394531 25.679688 L 132.367188 25.679688 C 132.085938 25.679688 131.808594 25.707031 131.535156 25.761719 C 131.261719 25.816406 130.996094 25.898438 130.738281 26.003906 C 130.480469 26.109375 130.234375 26.242188 130 26.398438 C 129.769531 26.554688 129.554688 26.730469 129.355469 26.925781 C 129.160156 27.125 128.980469 27.339844 128.828125 27.570312 C 128.671875 27.804688 128.539062 28.050781 128.433594 28.308594 C 128.328125 28.566406 128.246094 28.832031 128.191406 29.105469 C 128.136719 29.382812 128.109375 29.65625 128.109375 29.9375 L 128.109375 36.152344 C 112.179688 42.179688 97.503906 50.4375 84.085938 60.929688 C 84.148438 60.230469 84.046875 59.558594 83.773438 58.910156 C 83.503906 58.261719 83.097656 57.714844 82.554688 57.269531 L 72.761719 49.308594 C 71.84375 48.558594 70.792969 48.246094 69.613281 48.371094 C 68.445312 48.503906 67.492188 49.027344 66.761719 49.945312 L 24.1875 103.035156 C 23.839844 103.460938 23.582031 103.9375 23.417969 104.460938 C 23.253906 104.984375 23.195312 105.519531 23.238281 106.070312 C 23.28125 106.617188 23.425781 107.136719 23.671875 107.628906 C 23.917969 108.117188 24.242188 108.546875 24.652344 108.914062 L 34.445312 117.042969 C 35.230469 117.671875 36.125 117.984375 37.128906 117.980469 C 35.511719 121.175781 33.996094 124.421875 32.582031 127.714844 C 31.171875 131.007812 29.867188 134.34375 28.667969 137.71875 C 27.46875 141.09375 26.378906 144.507812 25.398438 147.953125 C 24.417969 151.398438 23.546875 154.871094 22.785156 158.375 C 22.027344 161.875 21.378906 165.398438 20.84375 168.9375 C 20.308594 172.480469 19.886719 176.039062 19.578125 179.609375 C 19.269531 183.175781 19.074219 186.753906 18.992188 190.335938 C 18.910156 193.917969 18.945312 197.496094 19.09375 201.078125 C 19.238281 204.65625 19.5 208.230469 19.875 211.792969 C 20.253906 215.355469 20.742188 218.902344 21.34375 222.433594 C 21.941406 225.96875 22.65625 229.476562 23.480469 232.960938 C 24.308594 236.449219 25.242188 239.90625 26.289062 243.332031 C 27.332031 246.761719 28.488281 250.148438 29.75 253.503906 C 31.011719 256.855469 32.378906 260.167969 33.851562 263.433594 C 35.324219 266.699219 36.898438 269.914062 38.574219 273.082031 C 40.253906 276.246094 42.03125 279.355469 43.90625 282.40625 C 45.78125 285.460938 47.753906 288.449219 49.820312 291.378906 C 51.886719 294.304688 54.042969 297.160156 56.292969 299.949219 C 58.542969 302.742188 60.878906 305.457031 63.300781 308.09375 C 65.722656 310.734375 68.226562 313.296875 70.808594 315.777344 C 73.394531 318.257812 76.058594 320.652344 78.792969 322.964844 C 81.53125 325.277344 84.339844 327.496094 87.21875 329.628906 C 90.101562 331.761719 93.042969 333.800781 96.054688 335.742188 C 99.0625 337.6875 102.132812 339.535156 105.257812 341.285156 C 108.386719 343.03125 111.566406 344.679688 114.796875 346.226562 C 118.03125 347.769531 121.308594 349.210938 124.632812 350.550781 C 127.957031 351.886719 131.320312 353.117188 134.722656 354.238281 C 138.125 355.359375 141.558594 356.375 145.027344 357.277344 C 148.492188 358.179688 151.984375 358.972656 155.503906 359.65625 C 159.019531 360.335938 162.558594 360.902344 166.109375 361.359375 C 169.664062 361.8125 173.230469 362.15625 176.804688 362.382812 C 180.378906 362.613281 183.960938 362.726562 187.542969 362.726562 C 191.125 362.726562 194.703125 362.613281 198.28125 362.382812 C 201.855469 362.15625 205.421875 361.8125 208.972656 361.359375 C 212.527344 360.902344 216.0625 360.335938 219.582031 359.65625 C 223.097656 358.972656 226.589844 358.179688 230.058594 357.277344 C 233.527344 356.375 236.960938 355.359375 240.363281 354.238281 C 243.765625 353.117188 247.128906 351.886719 250.453125 350.550781 C 253.777344 349.210938 257.054688 347.769531 260.289062 346.226562 C 263.519531 344.679688 266.699219 343.03125 269.824219 341.285156 C 272.953125 339.535156 276.023438 337.6875 279.03125 335.742188 C 282.039062 333.800781 284.984375 331.761719 287.863281 329.628906 C 290.742188 327.496094 293.554688 325.277344 296.289062 322.964844 C 299.027344 320.652344 301.691406 318.257812 304.273438 315.777344 C 306.859375 313.296875 309.363281 310.734375 311.785156 308.09375 C 314.207031 305.457031 316.542969 302.742188 318.792969 299.949219 C 321.039062 297.160156 323.199219 294.304688 325.265625 291.378906 C 327.332031 288.449219 329.300781 285.460938 331.179688 282.40625 C 333.054688 279.355469 334.832031 276.246094 336.507812 273.082031 C 338.1875 269.914062 339.761719 266.699219 341.234375 263.433594 C 342.707031 260.167969 344.074219 256.855469 345.335938 253.503906 C 346.597656 250.148438 347.75 246.761719 348.796875 243.332031 C 349.84375 239.90625 350.777344 236.449219 351.601562 232.960938 C 352.429688 229.476562 353.140625 225.96875 353.742188 222.433594 C 354.34375 218.902344 354.832031 215.355469 355.207031 211.792969 C 355.582031 208.230469 355.84375 204.65625 355.992188 201.078125 C 356.140625 197.496094 356.171875 193.917969 356.09375 190.335938 C 356.011719 186.753906 355.816406 183.175781 355.507812 179.609375 C 355.199219 176.039062 354.777344 172.480469 354.242188 168.9375 C 353.707031 165.398438 353.058594 161.875 352.300781 158.375 C 351.539062 154.871094 350.667969 151.398438 349.6875 147.953125 C 348.707031 144.507812 347.617188 141.09375 346.417969 137.71875 C 345.21875 134.34375 343.914062 131.007812 342.5 127.714844 C 341.089844 124.421875 339.574219 121.175781 337.957031 117.980469 Z M 187.710938 353.925781 C 185.378906 353.925781 183.046875 353.875 180.71875 353.769531 C 178.386719 353.667969 176.058594 353.515625 173.738281 353.308594 C 171.414062 353.105469 169.09375 352.851562 166.78125 352.542969 C 164.46875 352.238281 162.164062 351.882812 159.867188 351.476562 C 157.570312 351.070312 155.285156 350.613281 153.007812 350.105469 C 150.730469 349.597656 148.464844 349.042969 146.210938 348.4375 C 143.957031 347.832031 141.71875 347.179688 139.496094 346.472656 C 137.273438 345.769531 135.0625 345.019531 132.871094 344.21875 C 130.683594 343.417969 128.507812 342.570312 126.355469 341.675781 C 124.199219 340.78125 122.066406 339.839844 119.953125 338.851562 C 117.839844 337.863281 115.75 336.832031 113.683594 335.75 C 111.613281 334.671875 109.570312 333.546875 107.550781 332.378906 C 105.535156 331.207031 103.542969 329.996094 101.574219 328.742188 C 99.609375 327.484375 97.671875 326.1875 95.761719 324.84375 C 93.855469 323.503906 91.976562 322.121094 90.128906 320.699219 C 88.277344 319.277344 86.460938 317.8125 84.675781 316.3125 C 82.894531 314.808594 81.140625 313.269531 79.425781 311.691406 C 77.707031 310.113281 76.027344 308.496094 74.378906 306.84375 C 72.730469 305.191406 71.121094 303.503906 69.550781 301.78125 C 67.976562 300.058594 66.441406 298.300781 64.945312 296.511719 C 63.449219 294.722656 61.992188 292.902344 60.578125 291.046875 C 59.160156 289.195312 57.785156 287.308594 56.453125 285.398438 C 55.117188 283.484375 53.824219 281.542969 52.578125 279.570312 C 51.328125 277.601562 50.121094 275.605469 48.960938 273.582031 C 47.796875 271.558594 46.679688 269.511719 45.609375 267.441406 C 44.535156 265.367188 43.507812 263.273438 42.527344 261.15625 C 41.546875 259.042969 40.613281 256.90625 39.726562 254.746094 C 38.839844 252.589844 38 250.414062 37.207031 248.21875 C 36.414062 246.027344 35.667969 243.816406 34.972656 241.589844 C 34.277344 239.363281 33.632812 237.121094 33.035156 234.867188 C 32.4375 232.613281 31.886719 230.34375 31.390625 228.066406 C 30.890625 225.789062 30.441406 223.5 30.042969 221.199219 C 29.644531 218.902344 29.296875 216.597656 29 214.28125 C 28.699219 211.96875 28.453125 209.648438 28.257812 207.324219 C 28.0625 205 27.914062 202.671875 27.820312 200.34375 C 27.726562 198.011719 27.683594 195.679688 27.691406 193.347656 C 27.695312 191.015625 27.753906 188.683594 27.863281 186.351562 C 27.972656 184.023438 28.132812 181.695312 28.34375 179.371094 C 28.554688 177.050781 28.816406 174.730469 29.128906 172.421875 C 29.441406 170.109375 29.804688 167.804688 30.21875 165.507812 C 30.628906 163.210938 31.09375 160.925781 31.605469 158.652344 C 32.117188 156.375 32.679688 154.113281 33.292969 151.859375 C 33.90625 149.609375 34.566406 147.375 35.277344 145.152344 C 35.984375 142.929688 36.742188 140.722656 37.550781 138.535156 C 38.355469 136.34375 39.207031 134.175781 40.109375 132.023438 C 41.011719 129.871094 41.957031 127.742188 42.953125 125.628906 C 43.945312 123.519531 44.984375 121.433594 46.070312 119.367188 C 47.15625 117.300781 48.285156 115.261719 49.460938 113.246094 C 50.636719 111.230469 51.855469 109.242188 53.113281 107.28125 C 54.375 105.316406 55.679688 103.382812 57.027344 101.480469 C 58.371094 99.574219 59.757812 97.699219 61.1875 95.855469 C 62.617188 94.011719 64.082031 92.199219 65.589844 90.417969 C 67.097656 88.636719 68.644531 86.890625 70.226562 85.175781 C 71.808594 83.464844 73.429688 81.785156 75.085938 80.144531 C 76.746094 78.503906 78.4375 76.898438 80.164062 75.328125 C 81.890625 73.761719 83.652344 72.230469 85.445312 70.742188 C 87.238281 69.25 89.066406 67.796875 90.921875 66.386719 C 92.78125 64.976562 94.667969 63.605469 96.585938 62.277344 C 98.5 60.949219 100.445312 59.664062 102.421875 58.417969 C 104.394531 57.175781 106.394531 55.976562 108.417969 54.820312 C 110.445312 53.664062 112.496094 52.550781 114.570312 51.484375 C 116.644531 50.417969 118.742188 49.398438 120.863281 48.421875 C 122.980469 47.445312 125.121094 46.519531 127.28125 45.636719 C 129.441406 44.753906 131.617188 43.921875 133.8125 43.136719 C 134.226562 42.988281 134.605469 42.78125 134.953125 42.511719 C 135.300781 42.246094 135.597656 41.9375 135.851562 41.578125 C 136.101562 41.21875 136.292969 40.832031 136.425781 40.414062 C 136.558594 40 136.625 39.570312 136.625 39.132812 L 136.625 34.195312 L 176.984375 34.195312 C 184.234375 33.640625 191.488281 33.640625 198.738281 34.195312 L 238.800781 34.195312 L 238.800781 39.132812 C 238.800781 39.570312 238.867188 40 239 40.414062 C 239.132812 40.832031 239.324219 41.21875 239.574219 41.578125 C 239.828125 41.9375 240.125 42.246094 240.472656 42.511719 C 240.820312 42.78125 241.199219 42.988281 241.613281 43.136719 C 243.808594 43.921875 245.984375 44.753906 248.144531 45.636719 C 250.304688 46.519531 252.445312 47.445312 254.5625 48.421875 C 256.683594 49.398438 258.78125 50.417969 260.855469 51.484375 C 262.929688 52.550781 264.980469 53.664062 267.003906 54.820312 C 269.03125 55.976562 271.03125 57.175781 273.003906 58.417969 C 274.980469 59.664062 276.925781 60.949219 278.839844 62.277344 C 280.757812 63.605469 282.644531 64.976562 284.503906 66.386719 C 286.359375 67.796875 288.1875 69.25 289.980469 70.742188 C 291.773438 72.230469 293.535156 73.761719 295.261719 75.328125 C 296.988281 76.898438 298.679688 78.503906 300.339844 80.144531 C 301.996094 81.785156 303.617188 83.464844 305.199219 85.175781 C 306.78125 86.890625 308.328125 88.636719 309.835938 90.417969 C 311.34375 92.199219 312.808594 94.011719 314.238281 95.855469 C 315.667969 97.699219 317.054688 99.574219 318.398438 101.480469 C 319.746094 103.382812 321.050781 105.316406 322.3125 107.28125 C 323.570312 109.242188 324.789062 111.230469 325.964844 113.246094 C 327.140625 115.261719 328.269531 117.300781 329.355469 119.367188 C 330.441406 121.433594 331.480469 123.519531 332.472656 125.628906 C 333.46875 127.742188 334.414062 129.871094 335.316406 132.023438 C 336.21875 134.175781 337.070312 136.34375 337.875 138.535156 C 338.683594 140.722656 339.441406 142.929688 340.148438 145.152344 C 340.859375 147.375 341.519531 149.609375 342.132812 151.859375 C 342.746094 154.113281 343.308594 156.375 343.820312 158.652344 C 344.332031 160.925781 344.796875 163.210938 345.207031 165.507812 C 345.621094 167.804688 345.984375 170.109375 346.296875 172.421875 C 346.609375 174.730469 346.871094 177.050781 347.082031 179.371094 C 347.292969 181.695312 347.453125 184.023438 347.5625 186.351562 C 347.671875 188.683594 347.730469 191.015625 347.734375 193.347656 C 347.742188 195.679688 347.699219 198.011719 347.605469 200.34375 C 347.511719 202.671875 347.363281 205 347.167969 207.324219 C 346.972656 209.648438 346.726562 211.96875 346.425781 214.28125 C 346.128906 216.597656 345.78125 218.902344 345.382812 221.199219 C 344.984375 223.5 344.535156 225.789062 344.035156 228.066406 C 343.539062 230.34375 342.988281 232.613281 342.390625 234.867188 C 341.792969 237.121094 341.148438 239.363281 340.453125 241.589844 C 339.757812 243.816406 339.011719 246.027344 338.21875 248.21875 C 337.425781 250.414062 336.585938 252.589844 335.699219 254.746094 C 334.8125 256.90625 333.878906 259.042969 332.898438 261.15625 C 331.917969 263.273438 330.890625 265.367188 329.816406 267.441406 C 328.746094 269.511719 327.628906 271.558594 326.464844 273.582031 C 325.304688 275.605469 324.097656 277.601562 322.847656 279.570312 C 321.601562 281.542969 320.308594 283.484375 318.972656 285.398438 C 317.640625 287.308594 316.265625 289.195312 314.847656 291.046875 C 313.433594 292.902344 311.976562 294.722656 310.480469 296.511719 C 308.984375 298.300781 307.449219 300.058594 305.875 301.78125 C 304.304688 303.503906 302.695312 305.191406 301.046875 306.84375 C 299.398438 308.496094 297.71875 310.113281 296 311.691406 C 294.285156 313.269531 292.53125 314.808594 290.75 316.3125 C 288.964844 317.8125 287.148438 319.277344 285.296875 320.699219 C 283.449219 322.121094 281.570312 323.503906 279.660156 324.84375 C 277.753906 326.1875 275.816406 327.484375 273.851562 328.742188 C 271.882812 329.996094 269.890625 331.207031 267.875 332.378906 C 265.855469 333.546875 263.8125 334.671875 261.742188 335.75 C 259.675781 336.832031 257.585938 337.863281 255.472656 338.851562 C 253.359375 339.839844 251.226562 340.78125 249.070312 341.675781 C 246.917969 342.570312 244.742188 343.417969 242.550781 344.21875 C 240.363281 345.019531 238.152344 345.769531 235.929688 346.472656 C 233.707031 347.179688 231.46875 347.832031 229.214844 348.4375 C 226.960938 349.042969 224.695312 349.597656 222.417969 350.105469 C 220.140625 350.613281 217.855469 351.070312 215.558594 351.476562 C 213.261719 351.882812 210.957031 352.238281 208.644531 352.542969 C 206.332031 352.851562 204.011719 353.105469 201.6875 353.308594 C 199.367188 353.515625 197.039062 353.667969 194.707031 353.769531 C 192.378906 353.875 190.046875 353.925781 187.710938 353.925781 Z M 187.710938 353.925781 " fill-opacity="1" fill-rule="nonzero"/></g><path fill="#075985" d="M 187.710938 46.414062 C 185.300781 46.414062 182.886719 46.472656 180.476562 46.589844 C 178.066406 46.707031 175.660156 46.882812 173.261719 47.121094 C 170.859375 47.355469 168.464844 47.648438 166.078125 48.003906 C 163.691406 48.355469 161.3125 48.769531 158.945312 49.238281 C 156.578125 49.707031 154.226562 50.234375 151.882812 50.820312 C 149.542969 51.40625 147.21875 52.050781 144.910156 52.75 C 142.597656 53.449219 140.308594 54.203125 138.035156 55.015625 C 135.761719 55.828125 133.511719 56.695312 131.28125 57.621094 C 129.054688 58.542969 126.847656 59.519531 124.664062 60.550781 C 122.484375 61.582031 120.328125 62.664062 118.199219 63.800781 C 116.070312 64.9375 113.972656 66.125 111.902344 67.367188 C 109.832031 68.605469 107.792969 69.894531 105.785156 71.234375 C 103.777344 72.574219 101.804688 73.964844 99.867188 75.398438 C 97.929688 76.835938 96.027344 78.320312 94.160156 79.851562 C 92.292969 81.378906 90.464844 82.957031 88.675781 84.574219 C 86.890625 86.195312 85.140625 87.859375 83.433594 89.5625 C 81.726562 91.269531 80.0625 93.015625 78.441406 94.800781 C 76.820312 96.589844 75.242188 98.414062 73.710938 100.28125 C 72.179688 102.144531 70.695312 104.046875 69.257812 105.984375 C 67.816406 107.921875 66.429688 109.894531 65.085938 111.898438 C 63.746094 113.90625 62.453125 115.941406 61.210938 118.011719 C 59.96875 120.082031 58.78125 122.179688 57.640625 124.308594 C 56.503906 126.433594 55.417969 128.589844 54.382812 130.769531 C 53.351562 132.949219 52.371094 135.15625 51.449219 137.382812 C 50.523438 139.613281 49.65625 141.863281 48.839844 144.136719 C 48.027344 146.40625 47.269531 148.695312 46.566406 151.007812 C 45.863281 153.316406 45.21875 155.640625 44.632812 157.980469 C 44.046875 160.320312 43.515625 162.675781 43.042969 165.039062 C 42.570312 167.40625 42.15625 169.785156 41.800781 172.171875 C 41.445312 174.558594 41.148438 176.953125 40.914062 179.351562 C 40.675781 181.753906 40.496094 184.160156 40.375 186.570312 C 40.257812 188.980469 40.195312 191.390625 40.195312 193.804688 C 40.191406 196.21875 40.25 198.628906 40.367188 201.039062 C 40.484375 203.449219 40.660156 205.855469 40.894531 208.257812 C 41.128906 210.660156 41.425781 213.054688 41.777344 215.441406 C 42.128906 217.828125 42.539062 220.207031 43.011719 222.574219 C 43.480469 224.941406 44.007812 227.292969 44.589844 229.636719 C 45.175781 231.976562 45.816406 234.300781 46.515625 236.609375 C 47.214844 238.921875 47.972656 241.210938 48.78125 243.484375 C 49.59375 245.757812 50.460938 248.007812 51.382812 250.238281 C 52.304688 252.46875 53.28125 254.675781 54.3125 256.855469 C 55.34375 259.039062 56.425781 261.195312 57.5625 263.324219 C 58.699219 265.453125 59.886719 267.550781 61.125 269.621094 C 62.363281 271.691406 63.652344 273.730469 64.992188 275.738281 C 66.332031 277.746094 67.71875 279.71875 69.15625 281.660156 C 70.589844 283.597656 72.074219 285.5 73.605469 287.367188 C 75.132812 289.234375 76.707031 291.0625 78.328125 292.851562 C 79.945312 294.640625 81.609375 296.390625 83.3125 298.097656 C 85.019531 299.804688 86.765625 301.46875 88.550781 303.089844 C 90.339844 304.710938 92.164062 306.289062 94.027344 307.820312 C 95.890625 309.355469 97.792969 310.839844 99.730469 312.277344 C 101.667969 313.71875 103.636719 315.109375 105.644531 316.449219 C 107.648438 317.792969 109.6875 319.085938 111.753906 320.328125 C 113.824219 321.570312 115.921875 322.757812 118.050781 323.898438 C 120.175781 325.039062 122.332031 326.125 124.511719 327.15625 C 126.691406 328.191406 128.898438 329.171875 131.125 330.09375 C 133.355469 331.019531 135.605469 331.890625 137.875 332.707031 C 140.148438 333.519531 142.4375 334.277344 144.746094 334.980469 C 147.054688 335.683594 149.378906 336.328125 151.71875 336.917969 C 154.058594 337.503906 156.414062 338.035156 158.777344 338.507812 C 161.144531 338.980469 163.523438 339.394531 165.910156 339.753906 C 168.296875 340.109375 170.6875 340.40625 173.089844 340.644531 C 175.492188 340.882812 177.898438 341.0625 180.308594 341.183594 C 182.71875 341.304688 185.128906 341.363281 187.542969 341.367188 C 189.957031 341.367188 192.367188 341.3125 194.777344 341.195312 C 197.1875 341.078125 199.59375 340.902344 201.996094 340.667969 C 204.398438 340.433594 206.792969 340.140625 209.179688 339.789062 C 211.566406 339.4375 213.945312 339.027344 216.3125 338.558594 C 218.679688 338.089844 221.03125 337.5625 223.375 336.980469 C 225.714844 336.394531 228.039062 335.753906 230.351562 335.054688 C 232.660156 334.355469 234.953125 333.601562 237.226562 332.792969 C 239.496094 331.980469 241.75 331.113281 243.980469 330.195312 C 246.210938 329.273438 248.417969 328.296875 250.597656 327.265625 C 252.78125 326.238281 254.9375 325.15625 257.066406 324.019531 C 259.195312 322.882812 261.296875 321.695312 263.367188 320.457031 C 265.4375 319.21875 267.476562 317.929688 269.484375 316.59375 C 271.492188 315.253906 273.464844 313.867188 275.40625 312.429688 C 277.34375 310.996094 279.25 309.511719 281.117188 307.984375 C 282.980469 306.453125 284.808594 304.878906 286.601562 303.261719 C 288.390625 301.644531 290.136719 299.980469 291.847656 298.277344 C 293.554688 296.574219 295.21875 294.828125 296.84375 293.039062 C 298.464844 291.253906 300.042969 289.429688 301.574219 287.566406 C 303.109375 285.703125 304.59375 283.800781 306.035156 281.863281 C 307.472656 279.929688 308.863281 277.957031 310.207031 275.953125 C 311.550781 273.945312 312.84375 271.910156 314.085938 269.839844 C 315.328125 267.773438 316.519531 265.675781 317.660156 263.546875 C 318.796875 261.421875 319.886719 259.269531 320.917969 257.085938 C 321.953125 254.90625 322.933594 252.703125 323.859375 250.472656 C 324.785156 248.246094 325.65625 245.996094 326.472656 243.726562 C 327.285156 241.453125 328.046875 239.164062 328.75 236.855469 C 329.453125 234.546875 330.097656 232.222656 330.6875 229.882812 C 331.277344 227.542969 331.808594 225.1875 332.28125 222.824219 C 332.753906 220.457031 333.167969 218.082031 333.527344 215.695312 C 333.882812 213.308594 334.179688 210.914062 334.421875 208.511719 C 334.660156 206.109375 334.839844 203.707031 334.960938 201.296875 C 335.082031 198.886719 335.144531 196.472656 335.148438 194.058594 C 335.148438 191.644531 335.089844 189.234375 334.972656 186.820312 C 334.855469 184.410156 334.679688 182.003906 334.445312 179.597656 C 334.210938 177.195312 333.914062 174.800781 333.5625 172.410156 C 333.210938 170.023438 332.796875 167.644531 332.328125 165.277344 C 331.859375 162.90625 331.332031 160.550781 330.746094 158.210938 C 330.160156 155.867188 329.519531 153.539062 328.820312 151.230469 C 328.121094 148.917969 327.363281 146.625 326.550781 144.351562 C 325.742188 142.078125 324.875 139.824219 323.949219 137.59375 C 323.027344 135.363281 322.050781 133.15625 321.019531 130.972656 C 319.988281 128.789062 318.90625 126.632812 317.769531 124.5 C 316.632812 122.371094 315.445312 120.269531 314.203125 118.199219 C 312.964844 116.128906 311.675781 114.085938 310.335938 112.078125 C 308.996094 110.070312 307.605469 108.09375 306.167969 106.15625 C 304.730469 104.214844 303.246094 102.3125 301.71875 100.441406 C 300.1875 98.574219 298.613281 96.746094 296.992188 94.957031 C 295.371094 93.167969 293.707031 91.417969 292.003906 89.707031 C 290.296875 88 288.550781 86.335938 286.761719 84.710938 C 284.972656 83.089844 283.148438 81.511719 281.28125 79.976562 C 279.417969 78.445312 277.515625 76.957031 275.574219 75.519531 C 273.636719 74.078125 271.664062 72.6875 269.660156 71.34375 C 267.652344 70 265.613281 68.707031 263.542969 67.464844 C 261.472656 66.222656 259.375 65.03125 257.246094 63.890625 C 255.117188 62.75 252.960938 61.664062 250.78125 60.628906 C 248.597656 59.597656 246.394531 58.617188 244.164062 57.691406 C 241.933594 56.765625 239.679688 55.894531 237.410156 55.078125 C 235.136719 54.265625 232.84375 53.503906 230.535156 52.800781 C 228.222656 52.097656 225.898438 51.453125 223.558594 50.863281 C 221.214844 50.277344 218.859375 49.746094 216.492188 49.273438 C 214.125 48.800781 211.746094 48.386719 209.359375 48.027344 C 206.972656 47.671875 204.574219 47.375 202.171875 47.136719 C 199.769531 46.898438 197.363281 46.71875 194.953125 46.597656 C 192.539062 46.476562 190.128906 46.414062 187.710938 46.414062 Z M 187.710938 332.808594 C 185.4375 332.808594 183.164062 332.753906 180.890625 332.644531 C 178.621094 332.53125 176.351562 332.367188 174.085938 332.144531 C 171.824219 331.921875 169.566406 331.644531 167.316406 331.308594 C 165.0625 330.976562 162.824219 330.589844 160.589844 330.144531 C 158.359375 329.703125 156.140625 329.203125 153.933594 328.652344 C 151.726562 328.097656 149.535156 327.492188 147.355469 326.832031 C 145.179688 326.171875 143.019531 325.460938 140.878906 324.695312 C 138.734375 323.929688 136.613281 323.109375 134.511719 322.238281 C 132.410156 321.367188 130.332031 320.449219 128.273438 319.476562 C 126.214844 318.503906 124.183594 317.480469 122.179688 316.40625 C 120.171875 315.335938 118.191406 314.214844 116.242188 313.046875 C 114.289062 311.875 112.367188 310.660156 110.476562 309.394531 C 108.585938 308.132812 106.726562 306.820312 104.898438 305.46875 C 103.070312 304.113281 101.277344 302.710938 99.519531 301.269531 C 97.757812 299.828125 96.035156 298.339844 94.351562 296.8125 C 92.664062 295.285156 91.019531 293.714844 89.410156 292.109375 C 87.800781 290.5 86.234375 288.851562 84.703125 287.167969 C 83.175781 285.480469 81.691406 283.757812 80.25 282 C 78.804688 280.242188 77.40625 278.449219 76.050781 276.621094 C 74.695312 274.792969 73.386719 272.933594 72.121094 271.042969 C 70.859375 269.148438 69.640625 267.226562 68.472656 265.277344 C 67.300781 263.324219 66.183594 261.347656 65.109375 259.339844 C 64.039062 257.332031 63.015625 255.300781 62.042969 253.242188 C 61.070312 251.1875 60.148438 249.109375 59.277344 247.007812 C 58.40625 244.902344 57.589844 242.78125 56.824219 240.640625 C 56.058594 238.496094 55.34375 236.335938 54.683594 234.160156 C 54.023438 231.984375 53.417969 229.789062 52.867188 227.582031 C 52.3125 225.375 51.816406 223.15625 51.371094 220.925781 C 50.929688 218.695312 50.539062 216.453125 50.207031 214.203125 C 49.875 211.953125 49.597656 209.695312 49.375 207.429688 C 49.152344 205.167969 48.984375 202.898438 48.875 200.625 C 48.761719 198.351562 48.707031 196.078125 48.707031 193.804688 C 48.710938 191.53125 48.765625 189.253906 48.878906 186.984375 C 48.992188 184.710938 49.160156 182.441406 49.382812 180.179688 C 49.605469 177.914062 49.886719 175.65625 50.21875 173.40625 C 50.554688 171.15625 50.945312 168.917969 51.390625 166.683594 C 51.835938 164.453125 52.332031 162.234375 52.886719 160.027344 C 53.441406 157.820312 54.046875 155.628906 54.710938 153.453125 C 55.371094 151.277344 56.085938 149.117188 56.851562 146.976562 C 57.621094 144.832031 58.441406 142.710938 59.3125 140.609375 C 60.183594 138.507812 61.105469 136.429688 62.078125 134.375 C 63.054688 132.316406 64.078125 130.285156 65.148438 128.28125 C 66.222656 126.273438 67.34375 124.296875 68.515625 122.34375 C 69.6875 120.394531 70.90625 118.472656 72.167969 116.582031 C 73.433594 114.691406 74.746094 112.832031 76.101562 111.007812 C 77.457031 109.179688 78.859375 107.386719 80.300781 105.628906 C 81.746094 103.871094 83.234375 102.148438 84.761719 100.464844 C 86.289062 98.78125 87.859375 97.132812 89.46875 95.527344 C 91.078125 93.917969 92.726562 92.351562 94.414062 90.824219 C 96.101562 89.296875 97.824219 87.8125 99.585938 86.371094 C 101.34375 84.929688 103.136719 83.53125 104.964844 82.175781 C 106.792969 80.824219 108.65625 79.515625 110.546875 78.25 C 112.441406 76.988281 114.363281 75.773438 116.3125 74.605469 C 118.265625 73.4375 120.246094 72.316406 122.253906 71.246094 C 124.261719 70.175781 126.292969 69.15625 128.351562 68.183594 C 130.40625 67.210938 132.488281 66.292969 134.589844 65.421875 C 136.691406 64.554688 138.816406 63.738281 140.957031 62.972656 C 143.101562 62.207031 145.261719 61.496094 147.4375 60.835938 C 149.617188 60.179688 151.808594 59.574219 154.015625 59.023438 C 156.222656 58.472656 158.445312 57.976562 160.675781 57.53125 C 162.90625 57.089844 165.148438 56.703125 167.398438 56.371094 C 169.648438 56.039062 171.90625 55.765625 174.171875 55.542969 C 176.4375 55.320312 178.703125 55.15625 180.976562 55.046875 C 183.25 54.9375 185.523438 54.882812 187.796875 54.886719 C 190.074219 54.886719 192.347656 54.945312 194.621094 55.058594 C 196.890625 55.171875 199.160156 55.34375 201.421875 55.566406 C 203.6875 55.792969 205.945312 56.074219 208.195312 56.410156 C 210.445312 56.746094 212.683594 57.136719 214.917969 57.582031 C 217.148438 58.027344 219.367188 58.53125 221.570312 59.085938 C 223.777344 59.640625 225.96875 60.25 228.144531 60.910156 C 230.324219 61.574219 232.480469 62.289062 234.621094 63.058594 C 236.765625 63.828125 238.886719 64.648438 240.988281 65.519531 C 243.085938 66.394531 245.164062 67.316406 247.222656 68.292969 C 249.277344 69.265625 251.308594 70.292969 253.3125 71.367188 C 255.316406 72.441406 257.296875 73.566406 259.246094 74.738281 C 261.195312 75.910156 263.117188 77.128906 265.007812 78.394531 C 266.894531 79.660156 268.753906 80.972656 270.582031 82.328125 C 272.40625 83.6875 274.199219 85.089844 275.953125 86.535156 C 277.710938 87.980469 279.433594 89.464844 281.117188 90.996094 C 282.800781 92.527344 284.445312 94.097656 286.050781 95.707031 C 287.660156 97.316406 289.222656 98.96875 290.75 100.65625 C 292.277344 102.34375 293.757812 104.066406 295.199219 105.828125 C 296.640625 107.585938 298.039062 109.382812 299.390625 111.210938 C 300.746094 113.039062 302.050781 114.902344 303.3125 116.796875 C 304.574219 118.6875 305.789062 120.613281 306.957031 122.5625 C 308.125 124.515625 309.242188 126.496094 310.3125 128.503906 C 311.382812 130.511719 312.402344 132.546875 313.371094 134.605469 C 314.339844 136.664062 315.257812 138.742188 316.128906 140.847656 C 316.996094 142.949219 317.8125 145.074219 318.574219 147.214844 C 319.335938 149.359375 320.046875 151.519531 320.707031 153.699219 C 321.363281 155.875 321.964844 158.070312 322.515625 160.277344 C 323.066406 162.484375 323.5625 164.703125 324 166.9375 C 324.441406 169.167969 324.828125 171.410156 325.15625 173.660156 C 325.488281 175.910156 325.761719 178.167969 325.984375 180.433594 C 326.203125 182.699219 326.367188 184.964844 326.476562 187.238281 C 326.582031 189.511719 326.636719 191.785156 326.632812 194.058594 C 326.625 196.332031 326.566406 198.601562 326.449219 200.867188 C 326.332031 203.136719 326.160156 205.402344 325.933594 207.660156 C 325.703125 209.917969 325.421875 212.171875 325.082031 214.417969 C 324.746094 216.664062 324.351562 218.898438 323.90625 221.125 C 323.457031 223.351562 322.957031 225.566406 322.402344 227.769531 C 321.84375 229.96875 321.234375 232.15625 320.570312 234.328125 C 319.910156 236.5 319.191406 238.65625 318.425781 240.792969 C 317.65625 242.929688 316.835938 245.046875 315.964844 247.144531 C 315.089844 249.242188 314.167969 251.316406 313.195312 253.367188 C 312.21875 255.417969 311.195312 257.445312 310.125 259.445312 C 309.050781 261.445312 307.929688 263.421875 306.757812 265.367188 C 305.589844 267.3125 304.371094 269.230469 303.109375 271.117188 C 301.84375 273.003906 300.535156 274.859375 299.179688 276.683594 C 297.828125 278.503906 296.429688 280.292969 294.984375 282.046875 C 293.542969 283.800781 292.058594 285.519531 290.535156 287.203125 C 289.007812 288.882812 287.441406 290.527344 285.832031 292.132812 C 284.226562 293.734375 282.582031 295.300781 280.898438 296.824219 C 279.214844 298.347656 277.496094 299.832031 275.738281 301.269531 C 273.984375 302.710938 272.191406 304.109375 270.367188 305.460938 C 268.542969 306.8125 266.6875 308.117188 264.800781 309.378906 C 262.910156 310.640625 260.992188 311.855469 259.042969 313.023438 C 257.097656 314.191406 255.121094 315.308594 253.117188 316.378906 C 251.117188 317.453125 249.089844 318.472656 247.035156 319.445312 C 244.980469 320.414062 242.90625 321.335938 240.808594 322.207031 C 238.710938 323.074219 236.59375 323.894531 234.457031 324.660156 C 232.316406 325.425781 230.164062 326.136719 227.988281 326.796875 C 225.816406 327.457031 223.628906 328.066406 221.425781 328.617188 C 219.222656 329.171875 217.007812 329.671875 214.78125 330.117188 C 212.554688 330.5625 210.320312 330.949219 208.074219 331.285156 C 205.828125 331.621094 203.574219 331.902344 201.3125 332.125 C 199.054688 332.351562 196.789062 332.519531 194.523438 332.632812 C 192.253906 332.746094 189.984375 332.804688 187.710938 332.808594 Z M 187.710938 332.808594 " fill-opacity="1" fill-rule="nonzero"/><path fill="#075985" d="M 299.425781 142.972656 L 76 142.972656 C 75.71875 142.972656 75.441406 143 75.167969 143.054688 C 74.894531 143.109375 74.628906 143.1875 74.371094 143.296875 C 74.109375 143.402344 73.867188 143.535156 73.632812 143.6875 C 73.402344 143.84375 73.1875 144.019531 72.988281 144.21875 C 72.789062 144.417969 72.613281 144.632812 72.457031 144.863281 C 72.304688 145.097656 72.171875 145.339844 72.066406 145.601562 C 71.957031 145.859375 71.878906 146.125 71.824219 146.398438 C 71.769531 146.671875 71.742188 146.949219 71.742188 147.230469 L 71.742188 240.890625 C 71.742188 241.171875 71.769531 241.449219 71.824219 241.722656 C 71.878906 241.996094 71.957031 242.261719 72.066406 242.519531 C 72.171875 242.777344 72.304688 243.023438 72.457031 243.257812 C 72.613281 243.488281 72.789062 243.703125 72.988281 243.902344 C 73.1875 244.101562 73.402344 244.277344 73.632812 244.429688 C 73.867188 244.585938 74.109375 244.71875 74.371094 244.824219 C 74.628906 244.933594 74.894531 245.011719 75.167969 245.066406 C 75.441406 245.121094 75.71875 245.148438 76 245.148438 L 299.425781 245.148438 C 299.707031 245.148438 299.984375 245.121094 300.257812 245.066406 C 300.53125 245.011719 300.796875 244.933594 301.054688 244.824219 C 301.316406 244.71875 301.558594 244.585938 301.792969 244.429688 C 302.023438 244.277344 302.238281 244.101562 302.4375 243.902344 C 302.636719 243.703125 302.8125 243.488281 302.96875 243.257812 C 303.121094 243.023438 303.253906 242.777344 303.359375 242.519531 C 303.46875 242.261719 303.546875 241.996094 303.601562 241.722656 C 303.65625 241.449219 303.683594 241.171875 303.683594 240.890625 L 303.683594 147.230469 C 303.683594 146.949219 303.65625 146.671875 303.601562 146.398438 C 303.546875 146.125 303.46875 145.859375 303.359375 145.597656 C 303.253906 145.339844 303.121094 145.097656 302.96875 144.863281 C 302.8125 144.632812 302.636719 144.417969 302.4375 144.21875 C 302.238281 144.019531 302.023438 143.84375 301.792969 143.6875 C 301.558594 143.535156 301.316406 143.402344 301.054688 143.296875 C 300.796875 143.1875 300.53125 143.109375 300.257812 143.054688 C 299.984375 143 299.707031 142.972656 299.425781 142.972656 Z M 295.167969 236.632812 L 80.257812 236.632812 L 80.257812 151.484375 L 295.167969 151.484375 Z M 295.167969 236.632812 " fill-opacity="1" fill-rule="nonzero"/><path fill="#075985" d="M 229.945312 281.335938 L 144.117188 281.335938 C 143.835938 281.335938 143.5625 281.363281 143.285156 281.417969 C 143.011719 281.472656 142.746094 281.554688 142.488281 281.660156 C 142.230469 281.769531 141.984375 281.898438 141.75 282.054688 C 141.519531 282.210938 141.304688 282.386719 141.105469 282.585938 C 140.910156 282.78125 140.734375 282.996094 140.578125 283.230469 C 140.421875 283.460938 140.289062 283.707031 140.183594 283.964844 C 140.078125 284.222656 139.996094 284.488281 139.941406 284.765625 C 139.886719 285.039062 139.859375 285.316406 139.859375 285.59375 L 139.859375 302.625 C 139.859375 302.902344 139.886719 303.179688 139.941406 303.453125 C 139.996094 303.730469 140.078125 303.996094 140.183594 304.253906 C 140.289062 304.511719 140.421875 304.757812 140.578125 304.988281 C 140.730469 305.222656 140.910156 305.4375 141.105469 305.632812 C 141.304688 305.832031 141.519531 306.007812 141.75 306.164062 C 141.984375 306.320312 142.230469 306.449219 142.488281 306.558594 C 142.746094 306.664062 143.011719 306.746094 143.285156 306.800781 C 143.5625 306.855469 143.835938 306.882812 144.117188 306.882812 L 229.945312 306.882812 C 230.226562 306.882812 230.503906 306.855469 230.777344 306.800781 C 231.050781 306.746094 231.316406 306.664062 231.574219 306.558594 C 231.832031 306.449219 232.078125 306.320312 232.3125 306.164062 C 232.542969 306.007812 232.757812 305.832031 232.957031 305.632812 C 233.15625 305.4375 233.332031 305.222656 233.484375 304.988281 C 233.640625 304.757812 233.773438 304.511719 233.878906 304.253906 C 233.988281 303.996094 234.066406 303.730469 234.121094 303.453125 C 234.175781 303.179688 234.203125 302.902344 234.203125 302.625 L 234.203125 285.59375 C 234.203125 285.316406 234.175781 285.039062 234.121094 284.765625 C 234.066406 284.488281 233.988281 284.222656 233.878906 283.964844 C 233.773438 283.707031 233.640625 283.460938 233.484375 283.230469 C 233.332031 282.996094 233.15625 282.78125 232.957031 282.585938 C 232.757812 282.386719 232.542969 282.210938 232.3125 282.054688 C 232.078125 281.898438 231.832031 281.769531 231.574219 281.660156 C 231.316406 281.554688 231.050781 281.472656 230.777344 281.417969 C 230.503906 281.363281 230.226562 281.335938 229.945312 281.335938 Z M 225.6875 298.367188 L 148.375 298.367188 L 148.375 289.851562 L 225.6875 289.851562 Z M 225.6875 298.367188 " fill-opacity="1" fill-rule="nonzero"/><path fill="#075985" d="M 117.167969 191.464844 L 120.402344 195.082031 L 121.722656 194.058594 L 123.425781 177.03125 C 123.386719 176.667969 123.292969 176.324219 123.144531 175.992188 C 122.996094 175.660156 122.796875 175.359375 122.554688 175.09375 C 122.308594 174.824219 122.027344 174.601562 121.710938 174.421875 C 121.394531 174.246094 121.058594 174.121094 120.703125 174.050781 L 118.402344 178.863281 Z M 117.167969 191.464844 " fill-opacity="1" fill-rule="nonzero"/><path fill="#075985" d="M 116.316406 199.894531 L 115.039062 212.664062 L 116.359375 217.519531 C 117.15625 217.371094 117.851562 217.023438 118.449219 216.480469 C 119.046875 215.9375 119.457031 215.273438 119.679688 214.496094 L 121.382812 197.464844 L 120.277344 196.273438 Z M 116.316406 199.894531 " fill-opacity="1" fill-rule="nonzero"/><path fill="#075985" d="M 101.457031 191.421875 L 102.605469 179.96875 L 97.964844 178.179688 L 96.390625 193.847656 L 97.5 195.039062 Z M 101.457031 191.421875 " fill-opacity="1" fill-rule="nonzero"/><path fill="#075985" d="M 117.210938 178.777344 L 119.59375 173.964844 L 101.457031 173.964844 C 100.703125 174.167969 100.042969 174.542969 99.484375 175.089844 C 98.921875 175.632812 98.53125 176.28125 98.308594 177.03125 L 102.949219 178.863281 Z M 117.210938 178.777344 " fill-opacity="1" fill-rule="nonzero"/><path fill="#075985" d="M 97.074219 217.390625 L 115.335938 217.390625 L 114.015625 212.539062 L 99.542969 212.539062 L 94.519531 214.367188 C 94.550781 214.71875 94.632812 215.058594 94.769531 215.386719 C 94.90625 215.714844 95.089844 216.011719 95.320312 216.28125 C 95.546875 216.554688 95.8125 216.78125 96.109375 216.972656 C 96.410156 217.160156 96.730469 217.300781 97.074219 217.390625 Z M 97.074219 217.390625 " fill-opacity="1" fill-rule="nonzero"/><path fill="#075985" d="M 100.648438 199.894531 L 97.371094 196.273438 L 96.050781 197.464844 L 94.476562 213.175781 L 99.457031 211.34375 Z M 100.648438 199.894531 " fill-opacity="1" fill-rule="nonzero"/><path fill="#075985" d="M 128.449219 217.390625 L 146.542969 217.390625 L 145.140625 212.539062 L 130.664062 212.539062 L 125.640625 214.367188 C 125.679688 214.738281 125.777344 215.09375 125.929688 215.429688 C 126.085938 215.769531 126.289062 216.074219 126.542969 216.347656 C 126.796875 216.617188 127.085938 216.84375 127.410156 217.023438 C 127.738281 217.203125 128.082031 217.324219 128.449219 217.390625 Z M 128.449219 217.390625 " fill-opacity="1" fill-rule="nonzero"/><path fill="#075985" d="M 147.691406 199.894531 L 146.417969 212.664062 L 147.734375 217.519531 C 148.53125 217.371094 149.230469 217.023438 149.828125 216.480469 C 150.425781 215.9375 150.835938 215.273438 151.054688 214.496094 L 152.757812 197.464844 L 151.652344 196.273438 Z M 147.691406 199.894531 " fill-opacity="1" fill-rule="nonzero"/><path fill="#075985" d="M 132.835938 191.421875 L 133.984375 179.96875 L 129.34375 178.179688 L 127.769531 193.847656 L 128.875 195.039062 Z M 132.835938 191.421875 " fill-opacity="1" fill-rule="nonzero"/><path fill="#075985" d="M 131.984375 199.894531 L 128.746094 196.273438 L 127.429688 197.464844 L 125.851562 213.175781 L 130.832031 211.34375 Z M 131.984375 199.894531 " fill-opacity="1" fill-rule="nonzero"/><path fill="#075985" d="M 148.585938 178.777344 L 150.886719 173.964844 L 132.835938 173.964844 C 132.042969 174.109375 131.351562 174.449219 130.753906 174.984375 C 130.15625 175.523438 129.742188 176.175781 129.515625 176.945312 L 134.15625 178.777344 Z M 148.585938 178.777344 " fill-opacity="1" fill-rule="nonzero"/><path fill="#075985" d="M 148.503906 191.464844 L 151.78125 195.082031 L 153.101562 193.847656 L 154.804688 176.816406 C 154.765625 176.457031 154.671875 176.109375 154.523438 175.777344 C 154.371094 175.449219 154.175781 175.148438 153.929688 174.878906 C 153.683594 174.613281 153.402344 174.390625 153.085938 174.210938 C 152.769531 174.03125 152.433594 173.910156 152.078125 173.835938 L 149.78125 178.648438 Z M 148.503906 191.464844 " fill-opacity="1" fill-rule="nonzero"/><path fill="#075985" d="M 162.082031 212.539062 L 157.273438 212.539062 L 156.804688 217.390625 L 161.613281 217.390625 Z M 162.082031 212.539062 " fill-opacity="1" fill-rule="nonzero"/><path fill="#075985" d="M 189.882812 199.894531 L 188.648438 212.664062 L 189.96875 217.519531 C 190.765625 217.371094 191.460938 217.023438 192.0625 216.480469 C 192.660156 215.9375 193.070312 215.273438 193.289062 214.496094 L 194.992188 197.464844 L 193.886719 196.273438 Z M 189.882812 199.894531 " fill-opacity="1" fill-rule="nonzero"/><path fill="#075985" d="M 190.820312 178.777344 L 193.121094 173.964844 L 174.941406 173.964844 C 174.148438 174.109375 173.457031 174.449219 172.859375 174.984375 C 172.261719 175.523438 171.847656 176.175781 171.621094 176.945312 L 176.261719 178.777344 Z M 190.820312 178.777344 " fill-opacity="1" fill-rule="nonzero"/><path fill="#075985" d="M 190.734375 191.464844 L 194.015625 195.082031 L 195.332031 193.847656 L 197.035156 176.816406 C 197 176.457031 196.902344 176.109375 196.753906 175.777344 C 196.605469 175.449219 196.410156 175.148438 196.164062 174.878906 C 195.917969 174.613281 195.636719 174.390625 195.320312 174.210938 C 195.003906 174.03125 194.667969 173.910156 194.3125 173.835938 L 191.96875 178.777344 Z M 190.734375 191.464844 " fill-opacity="1" fill-rule="nonzero"/><path fill="#075985" d="M 170.683594 217.390625 L 188.777344 217.390625 L 187.414062 212.539062 L 172.941406 212.539062 L 167.957031 214.367188 C 167.992188 214.734375 168.082031 215.082031 168.230469 215.417969 C 168.378906 215.753906 168.574219 216.058594 168.820312 216.332031 C 169.066406 216.601562 169.347656 216.832031 169.664062 217.011719 C 169.984375 217.191406 170.324219 217.320312 170.683594 217.390625 Z M 170.683594 217.390625 " fill-opacity="1" fill-rule="nonzero"/><path fill="#075985" d="M 174.21875 199.894531 L 170.9375 196.273438 L 169.617188 197.464844 L 168.085938 213.175781 L 173.066406 211.34375 Z M 174.21875 199.894531 " fill-opacity="1" fill-rule="nonzero"/><path fill="#075985" d="M 175.066406 191.421875 L 176.21875 179.96875 L 171.578125 178.179688 L 170.003906 193.847656 L 171.066406 195.039062 Z M 175.066406 191.421875 " fill-opacity="1" fill-rule="nonzero"/><path fill="#075985" d="M 202.019531 217.390625 L 220.113281 217.390625 L 218.792969 212.539062 L 204.316406 212.539062 L 199.335938 214.367188 C 199.363281 214.730469 199.453125 215.082031 199.59375 215.414062 C 199.738281 215.75 199.929688 216.054688 200.171875 216.328125 C 200.414062 216.601562 200.691406 216.828125 201.007812 217.007812 C 201.324219 217.191406 201.660156 217.316406 202.019531 217.390625 Z M 202.019531 217.390625 " fill-opacity="1" fill-rule="nonzero"/><path fill="#075985" d="M 221.261719 199.894531 L 220.027344 212.664062 L 221.347656 217.519531 C 222.125 217.335938 222.808594 216.976562 223.402344 216.441406 C 223.992188 215.902344 224.414062 215.253906 224.667969 214.496094 L 226.328125 197.464844 L 225.261719 196.273438 Z M 221.261719 199.894531 " fill-opacity="1" fill-rule="nonzero"/><path fill="#075985" d="M 222.113281 191.464844 L 225.390625 195.082031 L 226.710938 193.847656 L 228.371094 176.816406 C 228.339844 176.457031 228.253906 176.109375 228.109375 175.777344 C 227.964844 175.445312 227.773438 175.144531 227.53125 174.878906 C 227.289062 174.609375 227.011719 174.386719 226.695312 174.207031 C 226.378906 174.027344 226.042969 173.90625 225.6875 173.835938 L 223.390625 178.648438 Z M 222.113281 191.464844 " fill-opacity="1" fill-rule="nonzero"/><path fill="#075985" d="M 206.445312 191.421875 L 207.59375 179.96875 L 202.953125 178.179688 L 201.378906 193.847656 L 202.445312 195.039062 Z M 206.445312 191.421875 " fill-opacity="1" fill-rule="nonzero"/><path fill="#075985" d="M 222.199219 178.777344 L 224.453125 173.964844 L 206.445312 173.964844 C 205.65625 174.109375 204.960938 174.449219 204.363281 174.984375 C 203.765625 175.523438 203.351562 176.175781 203.125 176.945312 L 207.765625 178.777344 Z M 222.199219 178.777344 " fill-opacity="1" fill-rule="nonzero"/><path fill="#075985" d="M 205.59375 199.894531 L 202.316406 196.273438 L 200.996094 197.464844 L 199.421875 213.175781 L 204.445312 211.34375 Z M 205.59375 199.894531 " fill-opacity="1" fill-rule="nonzero"/><path fill="#075985" d="M 235.695312 212.539062 L 230.882812 212.539062 L 230.371094 217.390625 L 235.226562 217.390625 Z M 235.695312 212.539062 " fill-opacity="1" fill-rule="nonzero"/><path fill="#075985" d="M 255.832031 205.726562 L 254.980469 214.242188 L 255.875 217.476562 C 256.398438 217.367188 256.855469 217.136719 257.253906 216.777344 C 257.648438 216.417969 257.929688 215.984375 258.085938 215.476562 L 259.238281 204.191406 L 258.511719 203.382812 Z M 255.832031 205.726562 " fill-opacity="1" fill-rule="nonzero"/><path fill="#075985" d="M 256.382812 200.105469 L 258.554688 202.488281 L 259.40625 201.679688 L 260.558594 190.441406 C 260.507812 189.941406 260.316406 189.507812 259.976562 189.136719 C 259.636719 188.765625 259.21875 188.53125 258.726562 188.441406 L 257.195312 191.632812 Z M 256.382812 200.105469 " fill-opacity="1" fill-rule="nonzero"/><path fill="#075985" d="M 243.058594 217.390625 L 255.109375 217.390625 L 254.257812 214.15625 L 244.507812 214.15625 L 241.144531 215.390625 C 241.167969 215.640625 241.234375 215.878906 241.339844 216.105469 C 241.445312 216.332031 241.585938 216.539062 241.757812 216.71875 C 241.929688 216.898438 242.128906 217.046875 242.351562 217.164062 C 242.574219 217.277344 242.8125 217.355469 243.058594 217.390625 Z M 243.058594 217.390625 " fill-opacity="1" fill-rule="nonzero"/><path fill="#075985" d="M 245.359375 205.726562 L 243.1875 203.300781 L 242.292969 204.109375 L 241.226562 214.582031 L 244.589844 213.347656 Z M 245.359375 205.726562 " fill-opacity="1" fill-rule="nonzero"/><path fill="#075985" d="M 245.910156 200.105469 L 246.679688 192.441406 L 243.570312 191.25 L 242.546875 201.679688 L 243.273438 202.488281 Z M 245.910156 200.105469 " fill-opacity="1" fill-rule="nonzero"/><path fill="#075985" d="M 256.382812 191.632812 L 257.917969 188.441406 L 245.910156 188.441406 C 245.386719 188.546875 244.929688 188.78125 244.53125 189.140625 C 244.136719 189.496094 243.855469 189.929688 243.699219 190.441406 L 246.804688 191.632812 Z M 256.382812 191.632812 " fill-opacity="1" fill-rule="nonzero"/><path fill="#075985" d="M 277.332031 191.632812 L 278.863281 188.441406 L 266.816406 188.441406 C 266.292969 188.546875 265.832031 188.78125 265.433594 189.140625 C 265.039062 189.496094 264.761719 189.929688 264.601562 190.441406 L 267.710938 191.632812 Z M 277.332031 191.632812 " fill-opacity="1" fill-rule="nonzero"/><path fill="#075985" d="M 266.261719 205.726562 L 264.089844 203.300781 L 263.195312 204.109375 L 262.132812 214.582031 L 265.496094 213.347656 Z M 266.261719 205.726562 " fill-opacity="1" fill-rule="nonzero"/><path fill="#075985" d="M 276.734375 205.726562 L 275.882812 214.242188 L 276.734375 217.476562 C 277.261719 217.378906 277.726562 217.148438 278.125 216.789062 C 278.523438 216.429688 278.796875 215.992188 278.949219 215.476562 L 280.097656 204.191406 L 279.375 203.382812 Z M 276.734375 205.726562 " fill-opacity="1" fill-rule="nonzero"/><path fill="#075985" d="M 263.878906 217.390625 L 275.96875 217.390625 L 275.074219 214.15625 L 265.410156 214.15625 L 262.089844 215.390625 C 262.128906 215.886719 262.3125 216.320312 262.644531 216.691406 C 262.976562 217.0625 263.386719 217.296875 263.878906 217.390625 Z M 263.878906 217.390625 " fill-opacity="1" fill-rule="nonzero"/><path fill="#075985" d="M 266.816406 200.105469 L 267.582031 192.441406 L 264.472656 191.25 L 263.453125 201.679688 L 264.175781 202.488281 Z M 266.816406 200.105469 " fill-opacity="1" fill-rule="nonzero"/><path fill="#075985" d="M 277.117188 200.105469 L 279.289062 202.488281 L 280.140625 201.679688 L 281.375 190.441406 C 281.328125 189.941406 281.132812 189.507812 280.792969 189.136719 C 280.457031 188.765625 280.039062 188.53125 279.546875 188.441406 L 278.054688 191.632812 Z M 277.117188 200.105469 " fill-opacity="1" fill-rule="nonzero"/><path fill="#075985" d="M 213.257812 271.546875 C 213.535156 271.546875 213.8125 271.519531 214.085938 271.464844 C 214.363281 271.410156 214.628906 271.328125 214.886719 271.222656 C 215.144531 271.113281 215.390625 270.984375 215.621094 270.828125 C 215.855469 270.671875 216.070312 270.496094 216.269531 270.296875 C 216.464844 270.101562 216.640625 269.886719 216.796875 269.652344 C 216.953125 269.421875 217.082031 269.175781 217.191406 268.917969 C 217.296875 268.660156 217.378906 268.390625 217.433594 268.117188 C 217.488281 267.84375 217.515625 267.566406 217.515625 267.289062 C 217.515625 267.007812 217.488281 266.730469 217.433594 266.457031 C 217.378906 266.183594 217.296875 265.917969 217.191406 265.660156 C 217.082031 265.398438 216.953125 265.15625 216.796875 264.921875 C 216.640625 264.691406 216.464844 264.476562 216.269531 264.277344 C 216.070312 264.078125 215.855469 263.902344 215.621094 263.746094 C 215.390625 263.59375 215.144531 263.460938 214.886719 263.355469 C 214.628906 263.246094 214.363281 263.167969 214.085938 263.113281 C 213.8125 263.058594 213.535156 263.03125 213.257812 263.03125 L 162.167969 263.03125 C 161.890625 263.03125 161.613281 263.058594 161.335938 263.113281 C 161.0625 263.167969 160.796875 263.246094 160.539062 263.355469 C 160.28125 263.460938 160.035156 263.59375 159.804688 263.746094 C 159.570312 263.902344 159.355469 264.078125 159.15625 264.277344 C 158.960938 264.476562 158.785156 264.691406 158.628906 264.921875 C 158.472656 265.15625 158.34375 265.398438 158.234375 265.660156 C 158.128906 265.917969 158.046875 266.183594 157.992188 266.457031 C 157.9375 266.730469 157.910156 267.007812 157.910156 267.289062 C 157.910156 267.566406 157.9375 267.84375 157.992188 268.117188 C 158.046875 268.390625 158.128906 268.660156 158.234375 268.917969 C 158.34375 269.175781 158.472656 269.421875 158.628906 269.652344 C 158.785156 269.886719 158.960938 270.101562 159.15625 270.296875 C 159.355469 270.496094 159.570312 270.671875 159.804688 270.828125 C 160.035156 270.984375 160.28125 271.113281 160.539062 271.222656 C 160.796875 271.328125 161.0625 271.410156 161.335938 271.464844 C 161.613281 271.519531 161.890625 271.546875 162.167969 271.546875 Z M 213.257812 271.546875 " fill-opacity="1" fill-rule="nonzero"/><path fill="#075985" d="M 106.820312 123.601562 L 157.910156 123.601562 C 158.191406 123.601562 158.46875 123.574219 158.742188 123.519531 C 159.015625 123.464844 159.28125 123.382812 159.539062 123.277344 C 159.796875 123.167969 160.042969 123.039062 160.277344 122.882812 C 160.507812 122.726562 160.722656 122.550781 160.921875 122.351562 C 161.117188 122.15625 161.296875 121.941406 161.449219 121.707031 C 161.605469 121.476562 161.738281 121.230469 161.84375 120.972656 C 161.953125 120.714844 162.03125 120.449219 162.085938 120.171875 C 162.140625 119.898438 162.167969 119.621094 162.167969 119.34375 C 162.167969 119.0625 162.140625 118.785156 162.085938 118.511719 C 162.03125 118.238281 161.953125 117.972656 161.84375 117.714844 C 161.738281 117.457031 161.605469 117.210938 161.449219 116.976562 C 161.296875 116.746094 161.117188 116.53125 160.921875 116.332031 C 160.722656 116.132812 160.507812 115.957031 160.277344 115.804688 C 160.042969 115.648438 159.796875 115.515625 159.539062 115.410156 C 159.28125 115.300781 159.015625 115.222656 158.742188 115.167969 C 158.46875 115.113281 158.191406 115.085938 157.910156 115.085938 L 106.820312 115.085938 C 106.542969 115.085938 106.265625 115.113281 105.992188 115.167969 C 105.71875 115.222656 105.453125 115.300781 105.191406 115.410156 C 104.933594 115.515625 104.6875 115.648438 104.457031 115.804688 C 104.222656 115.957031 104.007812 116.132812 103.8125 116.332031 C 103.613281 116.53125 103.4375 116.746094 103.28125 116.976562 C 103.128906 117.210938 102.996094 117.457031 102.890625 117.714844 C 102.78125 117.972656 102.699219 118.238281 102.648438 118.511719 C 102.59375 118.785156 102.566406 119.0625 102.566406 119.34375 C 102.566406 119.621094 102.59375 119.898438 102.648438 120.171875 C 102.699219 120.449219 102.78125 120.714844 102.890625 120.972656 C 102.996094 121.230469 103.128906 121.476562 103.28125 121.707031 C 103.4375 121.941406 103.613281 122.15625 103.8125 122.351562 C 104.007812 122.550781 104.222656 122.726562 104.457031 122.882812 C 104.6875 123.039062 104.933594 123.167969 105.191406 123.277344 C 105.453125 123.382812 105.71875 123.464844 105.992188 123.519531 C 106.265625 123.574219 106.542969 123.601562 106.820312 123.601562 Z M 106.820312 123.601562 " fill-opacity="1" fill-rule="nonzero"/><path fill="#075985" d="M 217.515625 123.601562 L 268.605469 123.601562 C 268.882812 123.601562 269.160156 123.574219 269.433594 123.519531 C 269.707031 123.464844 269.972656 123.382812 270.234375 123.277344 C 270.492188 123.167969 270.738281 123.039062 270.96875 122.882812 C 271.203125 122.726562 271.417969 122.550781 271.613281 122.351562 C 271.8125 122.15625 271.988281 121.941406 272.144531 121.707031 C 272.296875 121.476562 272.429688 121.230469 272.535156 120.972656 C 272.644531 120.714844 272.722656 120.449219 272.777344 120.171875 C 272.832031 119.898438 272.859375 119.621094 272.859375 119.34375 C 272.859375 119.0625 272.832031 118.785156 272.777344 118.511719 C 272.722656 118.238281 272.644531 117.972656 272.535156 117.714844 C 272.429688 117.457031 272.296875 117.210938 272.144531 116.976562 C 271.988281 116.746094 271.8125 116.53125 271.613281 116.332031 C 271.417969 116.132812 271.203125 115.957031 270.96875 115.804688 C 270.738281 115.648438 270.492188 115.515625 270.234375 115.410156 C 269.972656 115.300781 269.707031 115.222656 269.433594 115.167969 C 269.160156 115.113281 268.882812 115.085938 268.605469 115.085938 L 217.515625 115.085938 C 217.234375 115.085938 216.957031 115.113281 216.683594 115.167969 C 216.410156 115.222656 216.144531 115.300781 215.886719 115.410156 C 215.628906 115.515625 215.382812 115.648438 215.148438 115.804688 C 214.917969 115.957031 214.703125 116.132812 214.503906 116.332031 C 214.304688 116.53125 214.128906 116.746094 213.976562 116.976562 C 213.820312 117.210938 213.6875 117.457031 213.582031 117.714844 C 213.472656 117.972656 213.394531 118.238281 213.339844 118.511719 C 213.285156 118.785156 213.257812 119.0625 213.257812 119.34375 C 213.257812 119.621094 213.285156 119.898438 213.339844 120.171875 C 213.394531 120.449219 213.472656 120.714844 213.582031 120.972656 C 213.6875 121.230469 213.820312 121.476562 213.976562 121.707031 C 214.128906 121.941406 214.304688 122.15625 214.503906 122.351562 C 214.703125 122.550781 214.917969 122.726562 215.148438 122.882812 C 215.382812 123.039062 215.628906 123.167969 215.886719 123.277344 C 216.144531 123.382812 216.410156 123.464844 216.683594 123.519531 C 216.957031 123.574219 217.234375 123.601562 217.515625 123.601562 Z M 217.515625 123.601562 " fill-opacity="1" fill-rule="nonzero"/><g clip-path="url(#ddfc1b8d06)"><g clip-path="url(#3db1a4eaf4)"><path fill="#f3f4f6" d="M 59.730469 135.976562 L 315.3125 135.976562 L 315.3125 255.589844 L 59.730469 255.589844 Z M 59.730469 135.976562 " fill-opacity="1" fill-rule="nonzero"/></g></g><g clip-path="url(#97042e2093)"><g clip-path="url(#ddd6b9c5a6)"><path fill="#f3f4f6" d="M 112.386719 278.464844 L 262.589844 278.464844 L 262.589844 313.679688 L 112.386719 313.679688 Z M 112.386719 278.464844 " fill-opacity="1" fill-rule="nonzero"/></g></g><g clip-path="url(#1dec8ddd8d)"><g clip-path="url(#561c5b2b63)"><path fill="#f3f4f6" d="M 87.984375 92.691406 L 275.816406 92.691406 L 275.816406 212.304688 L 87.984375 212.304688 Z M 87.984375 92.691406 " fill-opacity="1" fill-rule="nonzero"/></g></g></svg>
