<svg xmlns="http://www.w3.org/2000/svg" xmlns:xlink="http://www.w3.org/1999/xlink" width="500" zoomAndPan="magnify" viewBox="0 0 375 374.999991" height="500" preserveAspectRatio="xMidYMid meet" version="1.0"><defs><clipPath id="3774b39de5"><path d="M 77.917969 15.335938 L 297.863281 15.335938 L 297.863281 355.5625 L 77.917969 355.5625 Z M 77.917969 15.335938 " clip-rule="nonzero"/></clipPath><clipPath id="2df6e82f50"><path d="M 123.667969 15.335938 L 252.113281 15.335938 C 264.246094 15.335938 275.882812 20.15625 284.460938 28.738281 C 293.042969 37.316406 297.863281 48.953125 297.863281 61.085938 L 297.863281 309.558594 C 297.863281 321.691406 293.042969 333.328125 284.460938 341.90625 C 275.882812 350.488281 264.246094 355.308594 252.113281 355.308594 L 123.667969 355.308594 C 111.535156 355.308594 99.898438 350.488281 91.316406 341.90625 C 82.738281 333.328125 77.917969 321.691406 77.917969 309.558594 L 77.917969 61.085938 C 77.917969 48.953125 82.738281 37.316406 91.316406 28.738281 C 99.898438 20.15625 111.535156 15.335938 123.667969 15.335938 Z M 123.667969 15.335938 " clip-rule="nonzero"/></clipPath><clipPath id="216df35fe7"><path d="M 77.917969 15.335938 L 297.667969 15.335938 L 297.667969 355.085938 L 77.917969 355.085938 Z M 77.917969 15.335938 " clip-rule="nonzero"/></clipPath><clipPath id="06cb25ee26"><path d="M 123.667969 15.335938 L 252.105469 15.335938 C 264.238281 15.335938 275.875 20.15625 284.457031 28.738281 C 293.035156 37.316406 297.855469 48.953125 297.855469 61.085938 L 297.855469 309.550781 C 297.855469 321.683594 293.035156 333.320312 284.457031 341.898438 C 275.875 350.476562 264.238281 355.296875 252.105469 355.296875 L 123.667969 355.296875 C 111.535156 355.296875 99.898438 350.476562 91.316406 341.898438 C 82.738281 333.320312 77.917969 321.683594 77.917969 309.550781 L 77.917969 61.085938 C 77.917969 48.953125 82.738281 37.316406 91.316406 28.738281 C 99.898438 20.15625 111.535156 15.335938 123.667969 15.335938 Z M 123.667969 15.335938 " clip-rule="nonzero"/></clipPath><clipPath id="03a2b5d08c"><path d="M 77.917969 177.109375 L 297.082031 177.109375 L 297.082031 359.46875 L 77.917969 359.46875 Z M 77.917969 177.109375 " clip-rule="nonzero"/></clipPath><clipPath id="53ca23853b"><path d="M 86.503906 129.429688 L 289.277344 129.429688 L 289.277344 350.148438 L 86.503906 350.148438 Z M 86.503906 129.429688 " clip-rule="nonzero"/></clipPath><clipPath id="9e1fa75ad6"><path d="M 132.675781 158.550781 L 243.714844 158.550781 L 243.714844 319.554688 L 132.675781 319.554688 Z M 132.675781 158.550781 " clip-rule="nonzero"/></clipPath><clipPath id="2ab77ad47b"><path d="M 136 161 L 269 161 L 269 320 L 136 320 Z M 136 161 " clip-rule="nonzero"/></clipPath><clipPath id="882a7faef8"><path d="M 252.816406 161.582031 L 268.285156 173.882812 L 152.09375 319.992188 L 136.625 307.691406 Z M 252.816406 161.582031 " clip-rule="nonzero"/></clipPath><clipPath id="8e23954058"><path d="M 252.816406 161.582031 L 268.285156 173.882812 L 152.132812 319.945312 L 136.664062 307.644531 Z M 252.816406 161.582031 " clip-rule="nonzero"/></clipPath><clipPath id="a6d28b4679"><path d="M 143 255 L 200 255 L 200 309 L 143 309 Z M 143 255 " clip-rule="nonzero"/></clipPath><clipPath id="be44c565fe"><path d="M 199.695312 286.695312 L 180.746094 308.804688 L 143.863281 277.195312 L 162.816406 255.085938 Z M 199.695312 286.695312 " clip-rule="nonzero"/></clipPath><clipPath id="008923cd7a"><path d="M 199.695312 286.695312 L 180.746094 308.804688 L 143.945312 277.265625 L 162.894531 255.152344 Z M 199.695312 286.695312 " clip-rule="nonzero"/></clipPath><clipPath id="debdf51540"><path d="M 230 163 L 266 163 L 266 200 L 230 200 Z M 230 163 " clip-rule="nonzero"/></clipPath><clipPath id="ddf83b02e0"><path d="M 251.117188 152.035156 L 278.992188 175.488281 L 258.5 199.847656 L 230.621094 176.390625 Z M 251.117188 152.035156 " clip-rule="nonzero"/></clipPath><clipPath id="d446195cbd"><path d="M 265.035156 163.746094 L 258.457031 199.8125 L 230.621094 176.390625 Z M 265.035156 163.746094 " clip-rule="nonzero"/></clipPath></defs><g clip-path="url(#3774b39de5)"><g clip-path="url(#2df6e82f50)"><path fill="#ffffff" d="M 77.917969 15.335938 L 297.863281 15.335938 L 297.863281 355.5625 L 77.917969 355.5625 Z M 77.917969 15.335938 " fill-opacity="1" fill-rule="nonzero"/></g></g><g clip-path="url(#216df35fe7)"><g clip-path="url(#06cb25ee26)"><path stroke-linecap="butt" transform="matrix(0.75, 0, 0, 0.75, 77.917953, 15.337795)" fill="none" stroke-linejoin="miter" d="M 61.000025 -0.00247623 L 232.250036 -0.00247623 C 248.427121 -0.00247623 263.942747 6.424608 275.385456 17.867317 C 286.822957 29.304817 293.25004 44.820443 293.25004 60.997528 L 293.25004 392.284008 C 293.25004 408.461092 286.822957 423.976718 275.385456 435.414219 C 263.942747 446.85172 248.427121 453.278804 232.250036 453.278804 L 61.000025 453.278804 C 44.822941 453.278804 29.307315 446.85172 17.864606 435.414219 C 6.427105 423.976718 0.0000210222 408.461092 0.0000210222 392.284008 L 0.0000210222 60.997528 C 0.0000210222 44.820443 6.427105 29.304817 17.864606 17.867317 C 29.307315 6.424608 44.822941 -0.00247623 61.000025 -0.00247623 Z M 61.000025 -0.00247623 " stroke="#000000" stroke-width="22" stroke-opacity="1" stroke-miterlimit="4"/></g></g><g clip-path="url(#03a2b5d08c)"><path fill="#000000" d="M 77.917969 177.109375 L 297.320312 177.109375 L 297.320312 359.46875 L 77.917969 359.46875 Z M 77.917969 177.109375 " fill-opacity="1" fill-rule="nonzero"/></g><g clip-path="url(#53ca23853b)"><path fill="#ffffff" d="M 86.503906 129.429688 L 289.277344 129.429688 L 289.277344 350.425781 L 86.503906 350.425781 Z M 86.503906 129.429688 " fill-opacity="1" fill-rule="nonzero"/></g><path stroke-linecap="butt" transform="matrix(0.75, 0.000000000000000157, -0.000000000000000157, 0.75, 86.502208, 135.888214)" fill="none" stroke-linejoin="miter" d="M 0.00226484 4.998006 L 272.122074 4.998006 " stroke="#000000" stroke-width="10" stroke-opacity="1" stroke-miterlimit="4"/><path stroke-linecap="round" transform="matrix(0.75, 0, 0, 0.75, 70.347516, 349.912827)" fill="none" stroke-linejoin="miter" d="M 6.500188 6.501647 L 305.906457 6.501647 " stroke="#000000" stroke-width="13" stroke-opacity="1" stroke-miterlimit="4"/><g clip-path="url(#9e1fa75ad6)"><path fill="#237d18" d="M 234.496094 232.730469 L 191.84375 160.515625 C 191.128906 159.300781 189.828125 158.558594 188.417969 158.558594 C 187.011719 158.558594 185.710938 159.300781 184.996094 160.515625 L 142.335938 232.742188 C 136.023438 242 132.6875 252.835938 132.6875 264.089844 C 132.6875 294.820312 157.6875 319.820312 188.417969 319.820312 C 219.148438 319.820312 244.152344 294.820312 244.152344 264.089844 C 244.152344 252.832031 240.8125 241.988281 234.496094 232.730469 Z M 188.417969 311.863281 C 162.078125 311.863281 140.644531 290.433594 140.644531 264.089844 C 140.644531 254.398438 143.527344 245.074219 148.972656 237.128906 C 149.03125 237.046875 149.082031 236.964844 149.132812 236.878906 L 188.417969 170.359375 L 227.707031 236.878906 C 227.746094 236.949219 227.792969 237.019531 227.839844 237.089844 L 227.847656 237.101562 C 227.847656 237.101562 227.847656 237.101562 227.851562 237.105469 C 227.851562 237.109375 227.855469 237.113281 227.855469 237.117188 C 233.3125 245.074219 236.195312 254.398438 236.195312 264.089844 C 236.195312 290.433594 214.761719 311.863281 188.417969 311.863281 Z M 188.417969 311.863281 " fill-opacity="1" fill-rule="nonzero"/></g><path fill="#237d18" d="M 182.871094 292.054688 C 170.558594 292.054688 160.539062 282.035156 160.539062 269.722656 C 160.539062 267.527344 158.757812 265.746094 156.558594 265.746094 C 154.363281 265.746094 152.582031 267.527344 152.582031 269.722656 C 152.582031 286.425781 166.167969 300.011719 182.871094 300.011719 C 185.070312 300.011719 186.851562 298.230469 186.851562 296.035156 C 186.851562 293.835938 185.070312 292.054688 182.871094 292.054688 Z M 182.871094 292.054688 " fill-opacity="1" fill-rule="nonzero"/><g clip-path="url(#2ab77ad47b)"><g clip-path="url(#882a7faef8)"><g clip-path="url(#8e23954058)"><path fill="#ffffff" d="M 252.816406 161.582031 L 268.285156 173.882812 L 152.144531 319.933594 L 136.675781 307.632812 Z M 252.816406 161.582031 " fill-opacity="1" fill-rule="nonzero"/></g></g></g><g clip-path="url(#a6d28b4679)"><g clip-path="url(#be44c565fe)"><g clip-path="url(#008923cd7a)"><path fill="#ffffff" d="M 199.695312 286.695312 L 180.746094 308.804688 L 143.949219 277.269531 L 162.902344 255.160156 Z M 199.695312 286.695312 " fill-opacity="1" fill-rule="nonzero"/></g></g></g><path stroke-linecap="butt" transform="matrix(0.572196, -0.727185, 0.727185, 0.572196, 122.61483, 337.037116)" fill="none" stroke-linejoin="miter" d="M 0.00134007 3.998766 L 235.97888 4.001499 " stroke="#237d18" stroke-width="8" stroke-opacity="1" stroke-miterlimit="4"/><g clip-path="url(#debdf51540)"><g clip-path="url(#ddf83b02e0)"><g clip-path="url(#d446195cbd)"><path fill="#237d18" d="M 251.117188 152.035156 L 278.992188 175.488281 L 258.5 199.847656 L 230.621094 176.390625 Z M 251.117188 152.035156 " fill-opacity="1" fill-rule="nonzero"/></g></g></g></svg>