<svg xmlns="http://www.w3.org/2000/svg" xmlns:xlink="http://www.w3.org/1999/xlink" width="500" zoomAndPan="magnify" viewBox="0 0 375 374.999991" height="500" preserveAspectRatio="xMidYMid meet" version="1.0"><defs><clipPath id="3c433b8ea1"><path d="M 3.359375 3.359375 L 371.605469 3.359375 L 371.605469 371.605469 L 3.359375 371.605469 Z M 3.359375 3.359375 " clip-rule="nonzero"/></clipPath><clipPath id="af5fcd24d7"><path d="M 93 59.726562 L 281.945312 59.726562 L 281.945312 315.265625 L 93 315.265625 Z M 93 59.726562 " clip-rule="nonzero"/></clipPath></defs><g clip-path="url(#3c433b8ea1)"><path fill="#237d18" d="M 187.496094 371.628906 C 85.765625 371.628906 3.359375 288.65625 3.359375 187.496094 C 3.359375 86.332031 85.765625 3.359375 187.496094 3.359375 C 289.222656 3.359375 371.628906 85.765625 371.628906 187.496094 C 371.628906 289.222656 288.65625 371.628906 187.496094 371.628906 Z M 187.496094 14.722656 C 92.015625 14.722656 14.722656 92.015625 14.722656 187.496094 C 14.722656 282.972656 92.015625 360.265625 187.496094 360.265625 C 282.972656 360.265625 360.265625 282.972656 360.265625 187.496094 C 360.265625 92.015625 282.402344 14.722656 187.496094 14.722656 Z M 187.496094 14.722656 " fill-opacity="1" fill-rule="nonzero"/></g><g clip-path="url(#af5fcd24d7)"><path fill="#237d18" d="M 277.90625 129.730469 L 192.820312 61.652344 C 192.613281 61.488281 192.347656 61.441406 192.128906 61.300781 C 191.65625 60.980469 191.160156 60.75 190.644531 60.53125 C 190.136719 60.320312 189.644531 60.15625 189.117188 60.046875 C 188.554688 59.9375 188.027344 59.914062 187.457031 59.914062 C 186.949219 59.914062 186.464844 59.9375 185.960938 60.035156 C 185.390625 60.144531 184.851562 60.332031 184.300781 60.550781 C 183.804688 60.75 183.355469 60.980469 182.902344 61.277344 C 182.671875 61.433594 182.398438 61.476562 182.179688 61.652344 L 97.09375 129.730469 C 93.429688 132.675781 92.824219 138.019531 95.761719 141.691406 C 97.445312 143.78125 99.917969 144.878906 102.414062 144.878906 C 104.269531 144.878906 106.152344 144.277344 107.722656 143.023438 L 178.988281 86.003906 L 179.046875 306.554688 C 179.046875 311.261719 182.859375 315.0625 187.554688 315.0625 C 192.261719 315.0625 196.0625 311.25 196.0625 306.554688 L 196.007812 86.003906 L 267.277344 143.011719 C 268.859375 144.265625 270.71875 144.871094 272.597656 144.871094 C 275.09375 144.871094 277.566406 143.769531 279.25 141.679688 C 282.164062 138.019531 281.578125 132.664062 277.90625 129.730469 Z M 277.90625 129.730469 " fill-opacity="1" fill-rule="nonzero"/></g></svg>