<svg xmlns="http://www.w3.org/2000/svg" xmlns:xlink="http://www.w3.org/1999/xlink" width="500" zoomAndPan="magnify" viewBox="0 0 375 374.999991" height="500" preserveAspectRatio="xMidYMid meet" version="1.0"><defs><clipPath id="5b878fd09b"><path d="M 77.917969 15.335938 L 297.863281 15.335938 L 297.863281 355.5625 L 77.917969 355.5625 Z M 77.917969 15.335938 " clip-rule="nonzero"/></clipPath><clipPath id="bf3c9b2fe5"><path d="M 123.667969 15.335938 L 252.113281 15.335938 C 264.246094 15.335938 275.882812 20.15625 284.460938 28.738281 C 293.042969 37.316406 297.863281 48.953125 297.863281 61.085938 L 297.863281 309.558594 C 297.863281 321.691406 293.042969 333.328125 284.460938 341.90625 C 275.882812 350.488281 264.246094 355.308594 252.113281 355.308594 L 123.667969 355.308594 C 111.535156 355.308594 99.898438 350.488281 91.316406 341.90625 C 82.738281 333.328125 77.917969 321.691406 77.917969 309.558594 L 77.917969 61.085938 C 77.917969 48.953125 82.738281 37.316406 91.316406 28.738281 C 99.898438 20.15625 111.535156 15.335938 123.667969 15.335938 Z M 123.667969 15.335938 " clip-rule="nonzero"/></clipPath><clipPath id="d1806ed12e"><path d="M 77.917969 15.335938 L 297.667969 15.335938 L 297.667969 355.085938 L 77.917969 355.085938 Z M 77.917969 15.335938 " clip-rule="nonzero"/></clipPath><clipPath id="eca69ea41b"><path d="M 123.667969 15.335938 L 252.105469 15.335938 C 264.238281 15.335938 275.875 20.15625 284.457031 28.738281 C 293.035156 37.316406 297.855469 48.953125 297.855469 61.085938 L 297.855469 309.550781 C 297.855469 321.683594 293.035156 333.320312 284.457031 341.898438 C 275.875 350.476562 264.238281 355.296875 252.105469 355.296875 L 123.667969 355.296875 C 111.535156 355.296875 99.898438 350.476562 91.316406 341.898438 C 82.738281 333.320312 77.917969 321.683594 77.917969 309.550781 L 77.917969 61.085938 C 77.917969 48.953125 82.738281 37.316406 91.316406 28.738281 C 99.898438 20.15625 111.535156 15.335938 123.667969 15.335938 Z M 123.667969 15.335938 " clip-rule="nonzero"/></clipPath><clipPath id="e99faaf6f9"><path d="M 77.917969 177.109375 L 297.082031 177.109375 L 297.082031 359.46875 L 77.917969 359.46875 Z M 77.917969 177.109375 " clip-rule="nonzero"/></clipPath><clipPath id="d4b896f44c"><path d="M 86.503906 129.429688 L 289.277344 129.429688 L 289.277344 350.148438 L 86.503906 350.148438 Z M 86.503906 129.429688 " clip-rule="nonzero"/></clipPath><clipPath id="7c13ac629c"><path d="M 132.675781 158.550781 L 244.425781 158.550781 L 244.425781 319.800781 L 132.675781 319.800781 Z M 132.675781 158.550781 " clip-rule="nonzero"/></clipPath><clipPath id="5672d6bd57"><path d="M 136 161 L 269 161 L 269 320 L 136 320 Z M 136 161 " clip-rule="nonzero"/></clipPath><clipPath id="ffa941277f"><path d="M 252.816406 161.578125 L 268.285156 173.878906 L 152.097656 319.992188 L 136.628906 307.691406 Z M 252.816406 161.578125 " clip-rule="nonzero"/></clipPath><clipPath id="cfd248b56d"><path d="M 252.816406 161.578125 L 268.285156 173.878906 L 152.132812 319.941406 L 136.664062 307.640625 Z M 252.816406 161.578125 " clip-rule="nonzero"/></clipPath><clipPath id="d51ebcf5ca"><path d="M 143 255 L 200 255 L 200 309 L 143 309 Z M 143 255 " clip-rule="nonzero"/></clipPath><clipPath id="723f54855f"><path d="M 199.703125 286.695312 L 180.75 308.808594 L 143.867188 277.199219 L 162.820312 255.085938 Z M 199.703125 286.695312 " clip-rule="nonzero"/></clipPath><clipPath id="bb7b62413f"><path d="M 199.703125 286.695312 L 180.75 308.808594 L 143.949219 277.269531 L 162.898438 255.15625 Z M 199.703125 286.695312 " clip-rule="nonzero"/></clipPath><clipPath id="abda50a882"><path d="M 119 307 L 155 307 L 155 344 L 119 344 Z M 119 307 " clip-rule="nonzero"/></clipPath><clipPath id="dc5dbdd005"><path d="M 133.628906 355.300781 L 106.199219 331.324219 L 127.152344 307.359375 L 154.582031 331.335938 Z M 133.628906 355.300781 " clip-rule="nonzero"/></clipPath><clipPath id="19e0afdd72"><path d="M 119.933594 343.332031 L 127.191406 307.394531 L 154.582031 331.335938 Z M 119.933594 343.332031 " clip-rule="nonzero"/></clipPath></defs><g clip-path="url(#5b878fd09b)"><g clip-path="url(#bf3c9b2fe5)"><path fill="#ffffff" d="M 77.917969 15.335938 L 297.863281 15.335938 L 297.863281 355.5625 L 77.917969 355.5625 Z M 77.917969 15.335938 " fill-opacity="1" fill-rule="nonzero"/></g></g><g clip-path="url(#d1806ed12e)"><g clip-path="url(#eca69ea41b)"><path stroke-linecap="butt" transform="matrix(0.75, 0, 0, 0.75, 77.917953, 15.337792)" fill="none" stroke-linejoin="miter" d="M 61.000025 -0.00247271 L 232.250036 -0.00247271 C 248.427121 -0.00247271 263.942747 6.424611 275.385456 17.86732 C 286.822957 29.304821 293.25004 44.820447 293.25004 60.997531 L 293.25004 392.284011 C 293.25004 408.461096 286.822957 423.976722 275.385456 435.414223 C 263.942747 446.851723 248.427121 453.278807 232.250036 453.278807 L 61.000025 453.278807 C 44.822941 453.278807 29.307315 446.851723 17.864606 435.414223 C 6.427105 423.976722 0.0000210222 408.461096 0.0000210222 392.284011 L 0.0000210222 60.997531 C 0.0000210222 44.820447 6.427105 29.304821 17.864606 17.86732 C 29.307315 6.424611 44.822941 -0.00247271 61.000025 -0.00247271 Z M 61.000025 -0.00247271 " stroke="#000000" stroke-width="22" stroke-opacity="1" stroke-miterlimit="4"/></g></g><g clip-path="url(#e99faaf6f9)"><path fill="#000000" d="M 77.917969 177.109375 L 297.320312 177.109375 L 297.320312 359.46875 L 77.917969 359.46875 Z M 77.917969 177.109375 " fill-opacity="1" fill-rule="nonzero"/></g><g clip-path="url(#d4b896f44c)"><path fill="#ffffff" d="M 86.503906 129.429688 L 289.277344 129.429688 L 289.277344 350.425781 L 86.503906 350.425781 Z M 86.503906 129.429688 " fill-opacity="1" fill-rule="nonzero"/></g><path stroke-linecap="butt" transform="matrix(0.75, 0.000000000000000157, -0.000000000000000157, 0.75, 86.502208, 135.888214)" fill="none" stroke-linejoin="miter" d="M 0.00226484 4.998006 L 272.122074 4.998006 " stroke="#000000" stroke-width="10" stroke-opacity="1" stroke-miterlimit="4"/><path stroke-linecap="round" transform="matrix(0.75, 0, 0, 0.75, 70.347516, 349.912827)" fill="none" stroke-linejoin="miter" d="M 6.500188 6.501647 L 305.906457 6.501647 " stroke="#000000" stroke-width="13" stroke-opacity="1" stroke-miterlimit="4"/><g clip-path="url(#7c13ac629c)"><path fill="#ff1111" d="M 234.492188 232.730469 L 191.84375 160.515625 C 191.125 159.300781 189.824219 158.558594 188.417969 158.558594 C 187.007812 158.558594 185.707031 159.300781 184.992188 160.515625 L 142.332031 232.742188 C 136.019531 242.003906 132.683594 252.839844 132.683594 264.09375 C 132.683594 294.824219 157.683594 319.828125 188.417969 319.828125 C 219.148438 319.828125 244.152344 294.824219 244.152344 264.09375 C 244.152344 252.835938 240.808594 241.992188 234.492188 232.730469 Z M 188.417969 311.871094 C 162.074219 311.871094 140.640625 290.4375 140.640625 264.09375 C 140.640625 254.402344 143.523438 245.074219 148.96875 237.132812 C 149.027344 237.050781 149.078125 236.964844 149.128906 236.882812 L 188.417969 170.359375 L 227.703125 236.882812 C 227.746094 236.953125 227.789062 237.023438 227.835938 237.09375 L 227.84375 237.101562 C 227.847656 237.105469 227.847656 237.105469 227.847656 237.109375 C 227.851562 237.109375 227.855469 237.113281 227.855469 237.117188 C 233.3125 245.074219 236.195312 254.402344 236.195312 264.09375 C 236.195312 290.4375 214.761719 311.871094 188.417969 311.871094 Z M 188.417969 311.871094 " fill-opacity="1" fill-rule="nonzero"/></g><path fill="#ff1111" d="M 182.867188 292.058594 C 170.554688 292.058594 160.535156 282.042969 160.535156 269.726562 C 160.535156 267.53125 158.753906 265.75 156.554688 265.75 C 154.359375 265.75 152.578125 267.53125 152.578125 269.726562 C 152.578125 286.429688 166.167969 300.015625 182.867188 300.015625 C 185.066406 300.015625 186.847656 298.234375 186.847656 296.039062 C 186.847656 293.84375 185.066406 292.058594 182.867188 292.058594 Z M 182.867188 292.058594 " fill-opacity="1" fill-rule="nonzero"/><g clip-path="url(#5672d6bd57)"><g clip-path="url(#ffa941277f)"><g clip-path="url(#cfd248b56d)"><path fill="#ffffff" d="M 252.816406 161.578125 L 268.285156 173.878906 L 152.144531 319.929688 L 136.675781 307.628906 Z M 252.816406 161.578125 " fill-opacity="1" fill-rule="nonzero"/></g></g></g><g clip-path="url(#d51ebcf5ca)"><g clip-path="url(#723f54855f)"><g clip-path="url(#bb7b62413f)"><path fill="#ffffff" d="M 199.703125 286.695312 L 180.75 308.808594 L 143.953125 277.273438 L 162.90625 255.160156 Z M 199.703125 286.695312 " fill-opacity="1" fill-rule="nonzero"/></g></g></g><path stroke-linecap="butt" transform="matrix(0.466354, -0.587379, 0.587379, 0.466354, 130.659634, 324.633435)" fill="none" stroke-linejoin="miter" d="M 0.00131132 5.000878 L 255.48055 5.002203 " stroke="#ff1111" stroke-width="10" stroke-opacity="1" stroke-miterlimit="4"/><g clip-path="url(#abda50a882)"><g clip-path="url(#dc5dbdd005)"><g clip-path="url(#19e0afdd72)"><path fill="#ff1111" d="M 133.628906 355.300781 L 106.199219 331.324219 L 127.152344 307.359375 L 154.582031 331.335938 Z M 133.628906 355.300781 " fill-opacity="1" fill-rule="nonzero"/></g></g></g></svg>