<svg xmlns="http://www.w3.org/2000/svg" xmlns:xlink="http://www.w3.org/1999/xlink" width="500" zoomAndPan="magnify" viewBox="0 0 375 374.999991" height="500" preserveAspectRatio="xMidYMid meet" version="1.0"><defs><clipPath id="8bdfd11376"><path d="M 3.359375 3.378906 L 371.605469 3.378906 L 371.605469 371.605469 L 3.359375 371.605469 Z M 3.359375 3.378906 " clip-rule="nonzero"/></clipPath><clipPath id="a3858a34bc"><path d="M 93 59.726562 L 281.945312 59.726562 L 281.945312 315.476562 L 93 315.476562 Z M 93 59.726562 " clip-rule="nonzero"/></clipPath></defs><g clip-path="url(#8bdfd11376)"><path fill="#ff1111" d="M 187.496094 3.359375 C 85.765625 3.359375 3.359375 86.332031 3.359375 187.492188 C 3.359375 288.65625 85.765625 371.628906 187.496094 371.628906 C 289.222656 371.628906 371.628906 289.222656 371.628906 187.492188 C 371.628906 85.765625 288.65625 3.359375 187.496094 3.359375 Z M 187.496094 360.265625 C 92.015625 360.265625 14.722656 282.972656 14.722656 187.492188 C 14.722656 92.015625 92.015625 14.722656 187.496094 14.722656 C 282.972656 14.722656 360.265625 92.015625 360.265625 187.492188 C 360.265625 282.972656 282.402344 360.265625 187.496094 360.265625 Z M 187.496094 360.265625 " fill-opacity="1" fill-rule="nonzero"/></g><g clip-path="url(#a3858a34bc)"><path fill="#ff1111" d="M 277.90625 245.261719 L 192.820312 313.339844 C 192.613281 313.503906 192.347656 313.546875 192.128906 313.691406 C 191.65625 314.007812 191.160156 314.238281 190.644531 314.460938 C 190.136719 314.667969 189.644531 314.832031 189.117188 314.945312 C 188.554688 315.054688 188.027344 315.074219 187.457031 315.074219 C 186.949219 315.074219 186.464844 315.054688 185.960938 314.953125 C 185.390625 314.84375 184.851562 314.65625 184.300781 314.4375 C 183.804688 314.238281 183.355469 314.007812 182.902344 313.710938 C 182.671875 313.558594 182.398438 313.515625 182.179688 313.339844 L 97.09375 245.261719 C 93.429688 242.3125 92.824219 236.96875 95.761719 233.296875 C 97.445312 231.210938 99.917969 230.109375 102.414062 230.109375 C 104.269531 230.109375 106.152344 230.714844 107.722656 231.96875 L 178.988281 288.984375 L 179.046875 68.4375 C 179.046875 63.730469 182.859375 59.925781 187.554688 59.925781 C 192.261719 59.925781 196.0625 63.742188 196.0625 68.4375 L 196.007812 288.984375 L 267.277344 231.980469 C 268.859375 230.726562 270.71875 230.121094 272.597656 230.121094 C 275.09375 230.121094 277.566406 231.21875 279.25 233.308594 C 282.164062 236.96875 281.578125 242.324219 277.90625 245.261719 Z M 277.90625 245.261719 " fill-opacity="1" fill-rule="nonzero"/></g></svg>